<svg width="400" height="400" viewBox="0 0 400 400" fill="none" xmlns="http://www.w3.org/2000/svg">
<mask id="mask0_865_20287" style="mask-type:alpha" maskUnits="userSpaceOnUse" x="0" y="0" width="400" height="400">
<rect width="400" height="400" rx="26.3662" fill="#1E1E1F"/>
</mask>
<g mask="url(#mask0_865_20287)">
<rect width="400" height="400" rx="29.1951" fill="url(#paint0_linear_865_20287)"/>
<path d="M105.913 200.246C109.715 213.612 114.896 226.547 121.373 238.842C124.331 244.286 127.289 249.73 132.66 253.16C133.591 253.744 134.616 254.162 135.69 254.394C143.602 256.081 147.939 249.712 150.734 243.887C154.904 234.748 158.273 225.264 160.805 215.543C161.295 213.728 161.766 211.914 162.238 210.099C163.145 206.633 164.053 203.131 164.833 199.629L199.746 106.357C206.998 96.6987 216.4 88.861 227.206 83.4657C238.012 78.0703 249.927 75.2654 262.005 75.2732C279.398 75.1661 296.309 80.9907 309.947 91.7862C332.775 109.061 346.367 143.085 346.367 143.085C348.348 147.515 349.368 152.314 349.361 157.167C349.352 161.661 348.457 166.109 346.728 170.258C345 174.407 342.471 178.174 339.286 181.345C336.101 184.517 332.323 187.029 328.168 188.74C324.012 190.452 319.559 191.327 315.064 191.318C310.067 191.314 305.129 190.212 300.606 188.089C296.08 185.966 292.077 182.875 288.88 179.033L288.553 178.634C286.359 175.672 284.53 172.454 283.109 169.052C281.227 164.782 279.119 160.615 276.794 156.568C275.56 154.481 274.181 152.503 272.766 150.543C271.543 148.791 270.097 147.206 268.465 145.825C265.253 143.23 261.207 142.196 257.432 144.428C257.251 144.532 257.075 144.648 256.906 144.773C253.023 147.44 250.301 152.83 248.414 156.967C242.97 168.689 239.849 180.702 236.764 193.042C236.183 195.419 235.603 197.796 235.058 200.191L220.632 247.371L200.291 292.228C193.008 301.626 183.688 309.249 173.033 314.524C162.377 319.798 150.664 322.587 138.775 322.677C89.3633 323.73 65.9185 279.127 65.9185 279.127C37.7739 232.963 29.4811 172.065 27.5032 152.594C27.0858 148.547 27.0677 146.134 27.0677 146.134C27.0654 140.035 28.7291 134.051 31.8791 128.829C35.0291 123.607 39.5459 119.344 44.9416 116.501C50.5207 113.674 56.7293 112.319 62.979 112.563C68.7933 112.807 74.4506 114.524 79.4194 117.554C83.2803 119.865 86.6176 122.955 89.2181 126.627C93.8635 133.232 94.916 141.452 95.8414 149.309C97.7631 166.541 101.132 183.58 105.913 200.246Z" fill="url(#paint1_linear_865_20287)"/>
<path d="M105.913 200.246C109.715 213.612 114.896 226.547 121.373 238.842C124.331 244.286 127.289 249.73 132.66 253.16C133.591 253.744 134.616 254.162 135.69 254.394C143.602 256.081 147.939 249.712 150.734 243.887C154.904 234.748 158.273 225.264 160.805 215.543C161.295 213.728 161.766 211.914 162.238 210.099C163.145 206.633 164.053 203.131 164.833 199.629L199.746 106.357C206.998 96.6987 216.4 88.861 227.206 83.4657C238.012 78.0703 249.927 75.2654 262.005 75.2732C279.398 75.1661 296.309 80.9907 309.947 91.7862C332.775 109.061 346.367 143.085 346.367 143.085C348.348 147.515 349.368 152.314 349.361 157.167C349.352 161.661 348.457 166.109 346.728 170.258C345 174.407 342.471 178.174 339.286 181.345C336.101 184.517 332.323 187.029 328.168 188.74C324.012 190.452 319.559 191.327 315.064 191.318C310.067 191.314 305.129 190.212 300.606 188.089C296.08 185.966 292.077 182.875 288.88 179.033L288.553 178.634C286.359 175.672 284.53 172.454 283.109 169.052C281.227 164.782 279.119 160.615 276.794 156.568C275.56 154.481 274.181 152.503 272.766 150.543C271.543 148.791 270.097 147.206 268.465 145.825C265.253 143.23 261.207 142.196 257.432 144.428C257.251 144.532 257.075 144.648 256.906 144.773C253.023 147.44 250.301 152.83 248.414 156.967C242.97 168.689 239.849 180.702 236.764 193.042C236.183 195.419 235.603 197.796 235.058 200.191L220.632 247.371L200.291 292.228C193.008 301.626 183.688 309.249 173.033 314.524C162.377 319.798 150.664 322.587 138.775 322.677C89.3633 323.73 65.9185 279.127 65.9185 279.127C37.7739 232.963 29.4811 172.065 27.5032 152.594C27.0858 148.547 27.0677 146.134 27.0677 146.134C27.0654 140.035 28.7291 134.051 31.8791 128.829C35.0291 123.607 39.5459 119.344 44.9416 116.501C50.5207 113.674 56.7293 112.319 62.979 112.563C68.7933 112.807 74.4506 114.524 79.4194 117.554C83.2803 119.865 86.6176 122.955 89.2181 126.627C93.8635 133.232 94.916 141.452 95.8414 149.309C97.7631 166.541 101.132 183.58 105.913 200.246Z" fill="url(#paint2_radial_865_20287)"/>
<path d="M105.913 200.246C109.715 213.612 114.896 226.547 121.373 238.842C124.331 244.286 127.289 249.73 132.66 253.16C133.591 253.744 134.616 254.162 135.69 254.394C143.602 256.081 147.939 249.712 150.734 243.887C154.904 234.748 158.273 225.264 160.805 215.543C161.295 213.728 161.766 211.914 162.238 210.099C163.145 206.633 164.053 203.131 164.833 199.629L199.746 106.357C206.998 96.6987 216.4 88.861 227.206 83.4657C238.012 78.0703 249.927 75.2654 262.005 75.2732C279.398 75.1661 296.309 80.9907 309.947 91.7862C332.775 109.061 346.367 143.085 346.367 143.085C348.348 147.515 349.368 152.314 349.361 157.167C349.352 161.661 348.457 166.109 346.728 170.258C345 174.407 342.471 178.174 339.286 181.345C336.101 184.517 332.323 187.029 328.168 188.74C324.012 190.452 319.559 191.327 315.064 191.318C310.067 191.314 305.129 190.212 300.606 188.089C296.08 185.966 292.077 182.875 288.88 179.033L288.553 178.634C286.359 175.672 284.53 172.454 283.109 169.052C281.227 164.782 279.119 160.615 276.794 156.568C275.56 154.481 274.181 152.503 272.766 150.543C271.543 148.791 270.097 147.206 268.465 145.825C265.253 143.23 261.207 142.196 257.432 144.428C257.251 144.532 257.075 144.648 256.906 144.773C253.023 147.44 250.301 152.83 248.414 156.967C242.97 168.689 239.849 180.702 236.764 193.042C236.183 195.419 235.603 197.796 235.058 200.191L220.632 247.371L200.291 292.228C193.008 301.626 183.688 309.249 173.033 314.524C162.377 319.798 150.664 322.587 138.775 322.677C89.3633 323.73 65.9185 279.127 65.9185 279.127C37.7739 232.963 29.4811 172.065 27.5032 152.594C27.0858 148.547 27.0677 146.134 27.0677 146.134C27.0654 140.035 28.7291 134.051 31.8791 128.829C35.0291 123.607 39.5459 119.344 44.9416 116.501C50.5207 113.674 56.7293 112.319 62.979 112.563C68.7933 112.807 74.4506 114.524 79.4194 117.554C83.2803 119.865 86.6176 122.955 89.2181 126.627C93.8635 133.232 94.916 141.452 95.8414 149.309C97.7631 166.541 101.132 183.58 105.913 200.246Z" fill="url(#paint3_radial_865_20287)"/>
<path d="M105.913 200.246C109.715 213.612 114.896 226.547 121.373 238.842C124.331 244.286 127.289 249.73 132.66 253.16C133.591 253.744 134.616 254.162 135.69 254.394C143.602 256.081 147.939 249.712 150.734 243.887C154.904 234.748 158.273 225.264 160.805 215.543C161.295 213.728 161.766 211.914 162.238 210.099C163.145 206.633 164.053 203.131 164.833 199.629L199.746 106.357C206.998 96.6987 216.4 88.861 227.206 83.4657C238.012 78.0703 249.927 75.2654 262.005 75.2732C279.398 75.1661 296.309 80.9907 309.947 91.7862C332.775 109.061 346.367 143.085 346.367 143.085C348.348 147.515 349.368 152.314 349.361 157.167C349.352 161.661 348.457 166.109 346.728 170.258C345 174.407 342.471 178.174 339.286 181.345C336.101 184.517 332.323 187.029 328.168 188.74C324.012 190.452 319.559 191.327 315.064 191.318C310.067 191.314 305.129 190.212 300.606 188.089C296.08 185.966 292.077 182.875 288.88 179.033L288.553 178.634C286.359 175.672 284.53 172.454 283.109 169.052C281.227 164.782 279.119 160.615 276.794 156.568C275.56 154.481 274.181 152.503 272.766 150.543C271.543 148.791 270.097 147.206 268.465 145.825C265.253 143.23 261.207 142.196 257.432 144.428C257.251 144.532 257.075 144.648 256.906 144.773C253.023 147.44 250.301 152.83 248.414 156.967C242.97 168.689 239.849 180.702 236.764 193.042C236.183 195.419 235.603 197.796 235.058 200.191L220.632 247.371L200.291 292.228C193.008 301.626 183.688 309.249 173.033 314.524C162.377 319.798 150.664 322.587 138.775 322.677C89.3633 323.73 65.9185 279.127 65.9185 279.127C37.7739 232.963 29.4811 172.065 27.5032 152.594C27.0858 148.547 27.0677 146.134 27.0677 146.134C27.0654 140.035 28.7291 134.051 31.8791 128.829C35.0291 123.607 39.5459 119.344 44.9416 116.501C50.5207 113.674 56.7293 112.319 62.979 112.563C68.7933 112.807 74.4506 114.524 79.4194 117.554C83.2803 119.865 86.6176 122.955 89.2181 126.627C93.8635 133.232 94.916 141.452 95.8414 149.309C97.7631 166.541 101.132 183.58 105.913 200.246Z" fill="url(#paint4_radial_865_20287)"/>
<path d="M105.913 200.246C109.715 213.612 114.896 226.547 121.373 238.842C124.331 244.286 127.289 249.73 132.66 253.16C133.591 253.744 134.616 254.162 135.69 254.394C143.602 256.081 147.939 249.712 150.734 243.887C154.904 234.748 158.273 225.264 160.805 215.543C161.295 213.728 161.766 211.914 162.238 210.099C163.145 206.633 164.053 203.131 164.833 199.629L199.746 106.357C206.998 96.6987 216.4 88.861 227.206 83.4657C238.012 78.0703 249.927 75.2654 262.005 75.2732C279.398 75.1661 296.309 80.9907 309.947 91.7862C332.775 109.061 346.367 143.085 346.367 143.085C348.348 147.515 349.368 152.314 349.361 157.167C349.352 161.661 348.457 166.109 346.728 170.258C345 174.407 342.471 178.174 339.286 181.345C336.101 184.517 332.323 187.029 328.168 188.74C324.012 190.452 319.559 191.327 315.064 191.318C310.067 191.314 305.129 190.212 300.606 188.089C296.08 185.966 292.077 182.875 288.88 179.033L288.553 178.634C286.359 175.672 284.53 172.454 283.109 169.052C281.227 164.782 279.119 160.615 276.794 156.568C275.56 154.481 274.181 152.503 272.766 150.543C271.543 148.791 270.097 147.206 268.465 145.825C265.253 143.23 261.207 142.196 257.432 144.428C257.251 144.532 257.075 144.648 256.906 144.773C253.023 147.44 250.301 152.83 248.414 156.967C242.97 168.689 239.849 180.702 236.764 193.042C236.183 195.419 235.603 197.796 235.058 200.191L220.632 247.371L200.291 292.228C193.008 301.626 183.688 309.249 173.033 314.524C162.377 319.798 150.664 322.587 138.775 322.677C89.3633 323.73 65.9185 279.127 65.9185 279.127C37.7739 232.963 29.4811 172.065 27.5032 152.594C27.0858 148.547 27.0677 146.134 27.0677 146.134C27.0654 140.035 28.7291 134.051 31.8791 128.829C35.0291 123.607 39.5459 119.344 44.9416 116.501C50.5207 113.674 56.7293 112.319 62.979 112.563C68.7933 112.807 74.4506 114.524 79.4194 117.554C83.2803 119.865 86.6176 122.955 89.2181 126.627C93.8635 133.232 94.916 141.452 95.8414 149.309C97.7631 166.541 101.132 183.58 105.913 200.246Z" fill="url(#paint5_radial_865_20287)"/>
<path d="M105.913 200.246C109.715 213.612 114.896 226.547 121.373 238.842C124.331 244.286 127.289 249.73 132.66 253.16C133.591 253.744 134.616 254.162 135.69 254.394C143.602 256.081 147.939 249.712 150.734 243.887C154.904 234.748 158.273 225.264 160.805 215.543C161.295 213.728 161.766 211.914 162.238 210.099C163.145 206.633 164.053 203.131 164.833 199.629L199.746 106.357C206.998 96.6987 216.4 88.861 227.206 83.4657C238.012 78.0703 249.927 75.2654 262.005 75.2732C279.398 75.1661 296.309 80.9907 309.947 91.7862C332.775 109.061 346.367 143.085 346.367 143.085C348.348 147.515 349.368 152.314 349.361 157.167C349.352 161.661 348.457 166.109 346.728 170.258C345 174.407 342.471 178.174 339.286 181.345C336.101 184.517 332.323 187.029 328.168 188.74C324.012 190.452 319.559 191.327 315.064 191.318C310.067 191.314 305.129 190.212 300.606 188.089C296.08 185.966 292.077 182.875 288.88 179.033L288.553 178.634C286.359 175.672 284.53 172.454 283.109 169.052C281.227 164.782 279.119 160.615 276.794 156.568C275.56 154.481 274.181 152.503 272.766 150.543C271.543 148.791 270.097 147.206 268.465 145.825C265.253 143.23 261.207 142.196 257.432 144.428C257.251 144.532 257.075 144.648 256.906 144.773C253.023 147.44 250.301 152.83 248.414 156.967C242.97 168.689 239.849 180.702 236.764 193.042C236.183 195.419 235.603 197.796 235.058 200.191L220.632 247.371L200.291 292.228C193.008 301.626 183.688 309.249 173.033 314.524C162.377 319.798 150.664 322.587 138.775 322.677C89.3633 323.73 65.9185 279.127 65.9185 279.127C37.7739 232.963 29.4811 172.065 27.5032 152.594C27.0858 148.547 27.0677 146.134 27.0677 146.134C27.0654 140.035 28.7291 134.051 31.8791 128.829C35.0291 123.607 39.5459 119.344 44.9416 116.501C50.5207 113.674 56.7293 112.319 62.979 112.563C68.7933 112.807 74.4506 114.524 79.4194 117.554C83.2803 119.865 86.6176 122.955 89.2181 126.627C93.8635 133.232 94.916 141.452 95.8414 149.309C97.7631 166.541 101.132 183.58 105.913 200.246Z" fill="url(#paint6_radial_865_20287)"/>
<path d="M105.913 200.246C109.715 213.612 114.896 226.547 121.373 238.842C124.331 244.286 127.289 249.73 132.66 253.16C133.591 253.744 134.616 254.162 135.69 254.394C143.602 256.081 147.939 249.712 150.734 243.887C154.904 234.748 158.273 225.264 160.805 215.543C161.295 213.728 161.766 211.914 162.238 210.099C163.145 206.633 164.053 203.131 164.833 199.629L199.746 106.357C206.998 96.6987 216.4 88.861 227.206 83.4657C238.012 78.0703 249.927 75.2654 262.005 75.2732C279.398 75.1661 296.309 80.9907 309.947 91.7862C332.775 109.061 346.367 143.085 346.367 143.085C348.348 147.515 349.368 152.314 349.361 157.167C349.352 161.661 348.457 166.109 346.728 170.258C345 174.407 342.471 178.174 339.286 181.345C336.101 184.517 332.323 187.029 328.168 188.74C324.012 190.452 319.559 191.327 315.064 191.318C310.067 191.314 305.129 190.212 300.606 188.089C296.08 185.966 292.077 182.875 288.88 179.033L288.553 178.634C286.359 175.672 284.53 172.454 283.109 169.052C281.227 164.782 279.119 160.615 276.794 156.568C275.56 154.481 274.181 152.503 272.766 150.543C271.543 148.791 270.097 147.206 268.465 145.825C265.253 143.23 261.207 142.196 257.432 144.428C257.251 144.532 257.075 144.648 256.906 144.773C253.023 147.44 250.301 152.83 248.414 156.967C242.97 168.689 239.849 180.702 236.764 193.042C236.183 195.419 235.603 197.796 235.058 200.191L220.632 247.371L200.291 292.228C193.008 301.626 183.688 309.249 173.033 314.524C162.377 319.798 150.664 322.587 138.775 322.677C89.3633 323.73 65.9185 279.127 65.9185 279.127C37.7739 232.963 29.4811 172.065 27.5032 152.594C27.0858 148.547 27.0677 146.134 27.0677 146.134C27.0654 140.035 28.7291 134.051 31.8791 128.829C35.0291 123.607 39.5459 119.344 44.9416 116.501C50.5207 113.674 56.7293 112.319 62.979 112.563C68.7933 112.807 74.4506 114.524 79.4194 117.554C83.2803 119.865 86.6176 122.955 89.2181 126.627C93.8635 133.232 94.916 141.452 95.8414 149.309C97.7631 166.541 101.132 183.58 105.913 200.246Z" fill="url(#paint7_radial_865_20287)"/>
<path d="M105.913 200.246C109.715 213.612 114.896 226.547 121.373 238.842C124.331 244.286 127.289 249.73 132.66 253.16C133.591 253.744 134.616 254.162 135.69 254.394C143.602 256.081 147.939 249.712 150.734 243.887C154.904 234.748 158.273 225.264 160.805 215.543C161.295 213.728 161.766 211.914 162.238 210.099C163.145 206.633 164.053 203.131 164.833 199.629L199.746 106.357C206.998 96.6987 216.4 88.861 227.206 83.4657C238.012 78.0703 249.927 75.2654 262.005 75.2732C279.398 75.1661 296.309 80.9907 309.947 91.7862C332.775 109.061 346.367 143.085 346.367 143.085C348.348 147.515 349.368 152.314 349.361 157.167C349.352 161.661 348.457 166.109 346.728 170.258C345 174.407 342.471 178.174 339.286 181.345C336.101 184.517 332.323 187.029 328.168 188.74C324.012 190.452 319.559 191.327 315.064 191.318C310.067 191.314 305.129 190.212 300.606 188.089C296.08 185.966 292.077 182.875 288.88 179.033L288.553 178.634C286.359 175.672 284.53 172.454 283.109 169.052C281.227 164.782 279.119 160.615 276.794 156.568C275.56 154.481 274.181 152.503 272.766 150.543C271.543 148.791 270.097 147.206 268.465 145.825C265.253 143.23 261.207 142.196 257.432 144.428C257.251 144.532 257.075 144.648 256.906 144.773C253.023 147.44 250.301 152.83 248.414 156.967C242.97 168.689 239.849 180.702 236.764 193.042C236.183 195.419 235.603 197.796 235.058 200.191L220.632 247.371L200.291 292.228C193.008 301.626 183.688 309.249 173.033 314.524C162.377 319.798 150.664 322.587 138.775 322.677C89.3633 323.73 65.9185 279.127 65.9185 279.127C37.7739 232.963 29.4811 172.065 27.5032 152.594C27.0858 148.547 27.0677 146.134 27.0677 146.134C27.0654 140.035 28.7291 134.051 31.8791 128.829C35.0291 123.607 39.5459 119.344 44.9416 116.501C50.5207 113.674 56.7293 112.319 62.979 112.563C68.7933 112.807 74.4506 114.524 79.4194 117.554C83.2803 119.865 86.6176 122.955 89.2181 126.627C93.8635 133.232 94.916 141.452 95.8414 149.309C97.7631 166.541 101.132 183.58 105.913 200.246Z" fill="url(#paint8_radial_865_20287)"/>
<path d="M105.913 200.246C109.715 213.612 114.896 226.547 121.373 238.842C124.331 244.286 127.289 249.73 132.66 253.16C133.591 253.744 134.616 254.162 135.69 254.394C143.602 256.081 147.939 249.712 150.734 243.887C154.904 234.748 158.273 225.264 160.805 215.543C161.295 213.728 161.766 211.914 162.238 210.099C163.145 206.633 164.053 203.131 164.833 199.629L199.746 106.357C206.998 96.6987 216.4 88.861 227.206 83.4657C238.012 78.0703 249.927 75.2654 262.005 75.2732C279.398 75.1661 296.309 80.9907 309.947 91.7862C332.775 109.061 346.367 143.085 346.367 143.085C348.348 147.515 349.368 152.314 349.361 157.167C349.352 161.661 348.457 166.109 346.728 170.258C345 174.407 342.471 178.174 339.286 181.345C336.101 184.517 332.323 187.029 328.168 188.74C324.012 190.452 319.559 191.327 315.064 191.318C310.067 191.314 305.129 190.212 300.606 188.089C296.08 185.966 292.077 182.875 288.88 179.033L288.553 178.634C286.359 175.672 284.53 172.454 283.109 169.052C281.227 164.782 279.119 160.615 276.794 156.568C275.56 154.481 274.181 152.503 272.766 150.543C271.543 148.791 270.097 147.206 268.465 145.825C265.253 143.23 261.207 142.196 257.432 144.428C257.251 144.532 257.075 144.648 256.906 144.773C253.023 147.44 250.301 152.83 248.414 156.967C242.97 168.689 239.849 180.702 236.764 193.042C236.183 195.419 235.603 197.796 235.058 200.191L220.632 247.371L200.291 292.228C193.008 301.626 183.688 309.249 173.033 314.524C162.377 319.798 150.664 322.587 138.775 322.677C89.3633 323.73 65.9185 279.127 65.9185 279.127C37.7739 232.963 29.4811 172.065 27.5032 152.594C27.0858 148.547 27.0677 146.134 27.0677 146.134C27.0654 140.035 28.7291 134.051 31.8791 128.829C35.0291 123.607 39.5459 119.344 44.9416 116.501C50.5207 113.674 56.7293 112.319 62.979 112.563C68.7933 112.807 74.4506 114.524 79.4194 117.554C83.2803 119.865 86.6176 122.955 89.2181 126.627C93.8635 133.232 94.916 141.452 95.8414 149.309C97.7631 166.541 101.132 183.58 105.913 200.246Z" fill="url(#paint9_radial_865_20287)"/>
<path d="M105.913 200.246C109.715 213.612 114.896 226.547 121.373 238.842C124.331 244.286 127.289 249.73 132.66 253.16C133.591 253.744 134.616 254.162 135.69 254.394C143.602 256.081 147.939 249.712 150.734 243.887C154.904 234.748 158.273 225.264 160.805 215.543C161.295 213.728 161.766 211.914 162.238 210.099C163.145 206.633 164.053 203.131 164.833 199.629L199.746 106.357C206.998 96.6987 216.4 88.861 227.206 83.4657C238.012 78.0703 249.927 75.2654 262.005 75.2732C279.398 75.1661 296.309 80.9907 309.947 91.7862C332.775 109.061 346.367 143.085 346.367 143.085C348.348 147.515 349.368 152.314 349.361 157.167C349.352 161.661 348.457 166.109 346.728 170.258C345 174.407 342.471 178.174 339.286 181.345C336.101 184.517 332.323 187.029 328.168 188.74C324.012 190.452 319.559 191.327 315.064 191.318C310.067 191.314 305.129 190.212 300.606 188.089C296.08 185.966 292.077 182.875 288.88 179.033L288.553 178.634C286.359 175.672 284.53 172.454 283.109 169.052C281.227 164.782 279.119 160.615 276.794 156.568C275.56 154.481 274.181 152.503 272.766 150.543C271.543 148.791 270.097 147.206 268.465 145.825C265.253 143.23 261.207 142.196 257.432 144.428C257.251 144.532 257.075 144.648 256.906 144.773C253.023 147.44 250.301 152.83 248.414 156.967C242.97 168.689 239.849 180.702 236.764 193.042C236.183 195.419 235.603 197.796 235.058 200.191L220.632 247.371L200.291 292.228C193.008 301.626 183.688 309.249 173.033 314.524C162.377 319.798 150.664 322.587 138.775 322.677C89.3633 323.73 65.9185 279.127 65.9185 279.127C37.7739 232.963 29.4811 172.065 27.5032 152.594C27.0858 148.547 27.0677 146.134 27.0677 146.134C27.0654 140.035 28.7291 134.051 31.8791 128.829C35.0291 123.607 39.5459 119.344 44.9416 116.501C50.5207 113.674 56.7293 112.319 62.979 112.563C68.7933 112.807 74.4506 114.524 79.4194 117.554C83.2803 119.865 86.6176 122.955 89.2181 126.627C93.8635 133.232 94.916 141.452 95.8414 149.309C97.7631 166.541 101.132 183.58 105.913 200.246Z" fill="url(#paint10_radial_865_20287)"/>
<path d="M105.913 200.246C109.715 213.612 114.896 226.547 121.373 238.842C124.331 244.286 127.289 249.73 132.66 253.16C133.591 253.744 134.616 254.162 135.69 254.394C143.602 256.081 147.939 249.712 150.734 243.887C154.904 234.748 158.273 225.264 160.805 215.543C161.295 213.728 161.766 211.914 162.238 210.099C163.145 206.633 164.053 203.131 164.833 199.629L199.746 106.357C206.998 96.6987 216.4 88.861 227.206 83.4657C238.012 78.0703 249.927 75.2654 262.005 75.2732C279.398 75.1661 296.309 80.9907 309.947 91.7862C332.775 109.061 346.367 143.085 346.367 143.085C348.348 147.515 349.368 152.314 349.361 157.167C349.352 161.661 348.457 166.109 346.728 170.258C345 174.407 342.471 178.174 339.286 181.345C336.101 184.517 332.323 187.029 328.168 188.74C324.012 190.452 319.559 191.327 315.064 191.318C310.067 191.314 305.129 190.212 300.606 188.089C296.08 185.966 292.077 182.875 288.88 179.033L288.553 178.634C286.359 175.672 284.53 172.454 283.109 169.052C281.227 164.782 279.119 160.615 276.794 156.568C275.56 154.481 274.181 152.503 272.766 150.543C271.543 148.791 270.097 147.206 268.465 145.825C265.253 143.23 261.207 142.196 257.432 144.428C257.251 144.532 257.075 144.648 256.906 144.773C253.023 147.44 250.301 152.83 248.414 156.967C242.97 168.689 239.849 180.702 236.764 193.042C236.183 195.419 235.603 197.796 235.058 200.191L220.632 247.371L200.291 292.228C193.008 301.626 183.688 309.249 173.033 314.524C162.377 319.798 150.664 322.587 138.775 322.677C89.3633 323.73 65.9185 279.127 65.9185 279.127C37.7739 232.963 29.4811 172.065 27.5032 152.594C27.0858 148.547 27.0677 146.134 27.0677 146.134C27.0654 140.035 28.7291 134.051 31.8791 128.829C35.0291 123.607 39.5459 119.344 44.9416 116.501C50.5207 113.674 56.7293 112.319 62.979 112.563C68.7933 112.807 74.4506 114.524 79.4194 117.554C83.2803 119.865 86.6176 122.955 89.2181 126.627C93.8635 133.232 94.916 141.452 95.8414 149.309C97.7631 166.541 101.132 183.58 105.913 200.246Z" fill="url(#paint11_radial_865_20287)"/>
<path d="M105.913 200.246C109.715 213.612 114.896 226.547 121.373 238.842C124.331 244.286 127.289 249.73 132.66 253.16C133.591 253.744 134.616 254.162 135.69 254.394C143.602 256.081 147.939 249.712 150.734 243.887C154.904 234.748 158.273 225.264 160.805 215.543C161.295 213.728 161.766 211.914 162.238 210.099C163.145 206.633 164.053 203.131 164.833 199.629L199.746 106.357C206.998 96.6987 216.4 88.861 227.206 83.4657C238.012 78.0703 249.927 75.2654 262.005 75.2732C279.398 75.1661 296.309 80.9907 309.947 91.7862C332.775 109.061 346.367 143.085 346.367 143.085C348.348 147.515 349.368 152.314 349.361 157.167C349.352 161.661 348.457 166.109 346.728 170.258C345 174.407 342.471 178.174 339.286 181.345C336.101 184.517 332.323 187.029 328.168 188.74C324.012 190.452 319.559 191.327 315.064 191.318C310.067 191.314 305.129 190.212 300.606 188.089C296.08 185.966 292.077 182.875 288.88 179.033L288.553 178.634C286.359 175.672 284.53 172.454 283.109 169.052C281.227 164.782 279.119 160.615 276.794 156.568C275.56 154.481 274.181 152.503 272.766 150.543C271.543 148.791 270.097 147.206 268.465 145.825C265.253 143.23 261.207 142.196 257.432 144.428C257.251 144.532 257.075 144.648 256.906 144.773C253.023 147.44 250.301 152.83 248.414 156.967C242.97 168.689 239.849 180.702 236.764 193.042C236.183 195.419 235.603 197.796 235.058 200.191L220.632 247.371L200.291 292.228C193.008 301.626 183.688 309.249 173.033 314.524C162.377 319.798 150.664 322.587 138.775 322.677C89.3633 323.73 65.9185 279.127 65.9185 279.127C37.7739 232.963 29.4811 172.065 27.5032 152.594C27.0858 148.547 27.0677 146.134 27.0677 146.134C27.0654 140.035 28.7291 134.051 31.8791 128.829C35.0291 123.607 39.5459 119.344 44.9416 116.501C50.5207 113.674 56.7293 112.319 62.979 112.563C68.7933 112.807 74.4506 114.524 79.4194 117.554C83.2803 119.865 86.6176 122.955 89.2181 126.627C93.8635 133.232 94.916 141.452 95.8414 149.309C97.7631 166.541 101.132 183.58 105.913 200.246Z" fill="url(#paint12_radial_865_20287)"/>
<path d="M105.913 200.246C109.715 213.612 114.896 226.547 121.373 238.842C124.331 244.286 127.289 249.73 132.66 253.16C133.591 253.744 134.616 254.162 135.69 254.394C143.602 256.081 147.939 249.712 150.734 243.887C154.904 234.748 158.273 225.264 160.805 215.543C161.295 213.728 161.766 211.914 162.238 210.099C163.145 206.633 164.053 203.131 164.833 199.629L199.746 106.357C206.998 96.6987 216.4 88.861 227.206 83.4657C238.012 78.0703 249.927 75.2654 262.005 75.2732C279.398 75.1661 296.309 80.9907 309.947 91.7862C332.775 109.061 346.367 143.085 346.367 143.085C348.348 147.515 349.368 152.314 349.361 157.167C349.352 161.661 348.457 166.109 346.728 170.258C345 174.407 342.471 178.174 339.286 181.345C336.101 184.517 332.323 187.029 328.168 188.74C324.012 190.452 319.559 191.327 315.064 191.318C310.067 191.314 305.129 190.212 300.606 188.089C296.08 185.966 292.077 182.875 288.88 179.033L288.553 178.634C286.359 175.672 284.53 172.454 283.109 169.052C281.227 164.782 279.119 160.615 276.794 156.568C275.56 154.481 274.181 152.503 272.766 150.543C271.543 148.791 270.097 147.206 268.465 145.825C265.253 143.23 261.207 142.196 257.432 144.428C257.251 144.532 257.075 144.648 256.906 144.773C253.023 147.44 250.301 152.83 248.414 156.967C242.97 168.689 239.849 180.702 236.764 193.042C236.183 195.419 235.603 197.796 235.058 200.191L220.632 247.371L200.291 292.228C193.008 301.626 183.688 309.249 173.033 314.524C162.377 319.798 150.664 322.587 138.775 322.677C89.3633 323.73 65.9185 279.127 65.9185 279.127C37.7739 232.963 29.4811 172.065 27.5032 152.594C27.0858 148.547 27.0677 146.134 27.0677 146.134C27.0654 140.035 28.7291 134.051 31.8791 128.829C35.0291 123.607 39.5459 119.344 44.9416 116.501C50.5207 113.674 56.7293 112.319 62.979 112.563C68.7933 112.807 74.4506 114.524 79.4194 117.554C83.2803 119.865 86.6176 122.955 89.2181 126.627C93.8635 133.232 94.916 141.452 95.8414 149.309C97.7631 166.541 101.132 183.58 105.913 200.246Z" fill="url(#paint13_radial_865_20287)"/>
<path d="M105.913 200.246C109.715 213.612 114.896 226.547 121.373 238.842C124.331 244.286 127.289 249.73 132.66 253.16C133.591 253.744 134.616 254.162 135.69 254.394C143.602 256.081 147.939 249.712 150.734 243.887C154.904 234.748 158.273 225.264 160.805 215.543C161.295 213.728 161.766 211.914 162.238 210.099C163.145 206.633 164.053 203.131 164.833 199.629L199.746 106.357C206.998 96.6987 216.4 88.861 227.206 83.4657C238.012 78.0703 249.927 75.2654 262.005 75.2732C279.398 75.1661 296.309 80.9907 309.947 91.7862C332.775 109.061 346.367 143.085 346.367 143.085C348.348 147.515 349.368 152.314 349.361 157.167C349.352 161.661 348.457 166.109 346.728 170.258C345 174.407 342.471 178.174 339.286 181.345C336.101 184.517 332.323 187.029 328.168 188.74C324.012 190.452 319.559 191.327 315.064 191.318C310.067 191.314 305.129 190.212 300.606 188.089C296.08 185.966 292.077 182.875 288.88 179.033L288.553 178.634C286.359 175.672 284.53 172.454 283.109 169.052C281.227 164.782 279.119 160.615 276.794 156.568C275.56 154.481 274.181 152.503 272.766 150.543C271.543 148.791 270.097 147.206 268.465 145.825C265.253 143.23 261.207 142.196 257.432 144.428C257.251 144.532 257.075 144.648 256.906 144.773C253.023 147.44 250.301 152.83 248.414 156.967C242.97 168.689 239.849 180.702 236.764 193.042C236.183 195.419 235.603 197.796 235.058 200.191L220.632 247.371L200.291 292.228C193.008 301.626 183.688 309.249 173.033 314.524C162.377 319.798 150.664 322.587 138.775 322.677C89.3633 323.73 65.9185 279.127 65.9185 279.127C37.7739 232.963 29.4811 172.065 27.5032 152.594C27.0858 148.547 27.0677 146.134 27.0677 146.134C27.0654 140.035 28.7291 134.051 31.8791 128.829C35.0291 123.607 39.5459 119.344 44.9416 116.501C50.5207 113.674 56.7293 112.319 62.979 112.563C68.7933 112.807 74.4506 114.524 79.4194 117.554C83.2803 119.865 86.6176 122.955 89.2181 126.627C93.8635 133.232 94.916 141.452 95.8414 149.309C97.7631 166.541 101.132 183.58 105.913 200.246Z" fill="url(#paint14_radial_865_20287)"/>
<path d="M105.913 200.246C109.715 213.612 114.896 226.547 121.373 238.842C124.331 244.286 127.289 249.73 132.66 253.16C133.591 253.744 134.616 254.162 135.69 254.394C143.602 256.081 147.939 249.712 150.734 243.887C154.904 234.748 158.273 225.264 160.805 215.543C161.295 213.728 161.766 211.914 162.238 210.099C163.145 206.633 164.053 203.131 164.833 199.629L199.746 106.357C206.998 96.6987 216.4 88.861 227.206 83.4657C238.012 78.0703 249.927 75.2654 262.005 75.2732C279.398 75.1661 296.309 80.9907 309.947 91.7862C332.775 109.061 346.367 143.085 346.367 143.085C348.348 147.515 349.368 152.314 349.361 157.167C349.352 161.661 348.457 166.109 346.728 170.258C345 174.407 342.471 178.174 339.286 181.345C336.101 184.517 332.323 187.029 328.168 188.74C324.012 190.452 319.559 191.327 315.064 191.318C310.067 191.314 305.129 190.212 300.606 188.089C296.08 185.966 292.077 182.875 288.88 179.033L288.553 178.634C286.359 175.672 284.53 172.454 283.109 169.052C281.227 164.782 279.119 160.615 276.794 156.568C275.56 154.481 274.181 152.503 272.766 150.543C271.543 148.791 270.097 147.206 268.465 145.825C265.253 143.23 261.207 142.196 257.432 144.428C257.251 144.532 257.075 144.648 256.906 144.773C253.023 147.44 250.301 152.83 248.414 156.967C242.97 168.689 239.849 180.702 236.764 193.042C236.183 195.419 235.603 197.796 235.058 200.191L220.632 247.371L200.291 292.228C193.008 301.626 183.688 309.249 173.033 314.524C162.377 319.798 150.664 322.587 138.775 322.677C89.3633 323.73 65.9185 279.127 65.9185 279.127C37.7739 232.963 29.4811 172.065 27.5032 152.594C27.0858 148.547 27.0677 146.134 27.0677 146.134C27.0654 140.035 28.7291 134.051 31.8791 128.829C35.0291 123.607 39.5459 119.344 44.9416 116.501C50.5207 113.674 56.7293 112.319 62.979 112.563C68.7933 112.807 74.4506 114.524 79.4194 117.554C83.2803 119.865 86.6176 122.955 89.2181 126.627C93.8635 133.232 94.916 141.452 95.8414 149.309C97.7631 166.541 101.132 183.58 105.913 200.246Z" fill="url(#paint15_radial_865_20287)"/>
<path d="M105.913 200.246C109.715 213.612 114.896 226.547 121.373 238.842C124.331 244.286 127.289 249.73 132.66 253.16C133.591 253.744 134.616 254.162 135.69 254.394C143.602 256.081 147.939 249.712 150.734 243.887C154.904 234.748 158.273 225.264 160.805 215.543C161.295 213.728 161.766 211.914 162.238 210.099C163.145 206.633 164.053 203.131 164.833 199.629L199.746 106.357C206.998 96.6987 216.4 88.861 227.206 83.4657C238.012 78.0703 249.927 75.2654 262.005 75.2732C279.398 75.1661 296.309 80.9907 309.947 91.7862C332.775 109.061 346.367 143.085 346.367 143.085C348.348 147.515 349.368 152.314 349.361 157.167C349.352 161.661 348.457 166.109 346.728 170.258C345 174.407 342.471 178.174 339.286 181.345C336.101 184.517 332.323 187.029 328.168 188.74C324.012 190.452 319.559 191.327 315.064 191.318C310.067 191.314 305.129 190.212 300.606 188.089C296.08 185.966 292.077 182.875 288.88 179.033L288.553 178.634C286.359 175.672 284.53 172.454 283.109 169.052C281.227 164.782 279.119 160.615 276.794 156.568C275.56 154.481 274.181 152.503 272.766 150.543C271.543 148.791 270.097 147.206 268.465 145.825C265.253 143.23 261.207 142.196 257.432 144.428C257.251 144.532 257.075 144.648 256.906 144.773C253.023 147.44 250.301 152.83 248.414 156.967C242.97 168.689 239.849 180.702 236.764 193.042C236.183 195.419 235.603 197.796 235.058 200.191L220.632 247.371L200.291 292.228C193.008 301.626 183.688 309.249 173.033 314.524C162.377 319.798 150.664 322.587 138.775 322.677C89.3633 323.73 65.9185 279.127 65.9185 279.127C37.7739 232.963 29.4811 172.065 27.5032 152.594C27.0858 148.547 27.0677 146.134 27.0677 146.134C27.0654 140.035 28.7291 134.051 31.8791 128.829C35.0291 123.607 39.5459 119.344 44.9416 116.501C50.5207 113.674 56.7293 112.319 62.979 112.563C68.7933 112.807 74.4506 114.524 79.4194 117.554C83.2803 119.865 86.6176 122.955 89.2181 126.627C93.8635 133.232 94.916 141.452 95.8414 149.309C97.7631 166.541 101.132 183.58 105.913 200.246Z" fill="url(#paint16_radial_865_20287)"/>
<path d="M105.913 200.246C109.715 213.612 114.896 226.547 121.373 238.842C124.331 244.286 127.289 249.73 132.66 253.16C133.591 253.744 134.616 254.162 135.69 254.394C143.602 256.081 147.939 249.712 150.734 243.887C154.904 234.748 158.273 225.264 160.805 215.543C161.295 213.728 161.766 211.914 162.238 210.099C163.145 206.633 164.053 203.131 164.833 199.629L199.746 106.357C206.998 96.6987 216.4 88.861 227.206 83.4657C238.012 78.0703 249.927 75.2654 262.005 75.2732C279.398 75.1661 296.309 80.9907 309.947 91.7862C332.775 109.061 346.367 143.085 346.367 143.085C348.348 147.515 349.368 152.314 349.361 157.167C349.352 161.661 348.457 166.109 346.728 170.258C345 174.407 342.471 178.174 339.286 181.345C336.101 184.517 332.323 187.029 328.168 188.74C324.012 190.452 319.559 191.327 315.064 191.318C310.067 191.314 305.129 190.212 300.606 188.089C296.08 185.966 292.077 182.875 288.88 179.033L288.553 178.634C286.359 175.672 284.53 172.454 283.109 169.052C281.227 164.782 279.119 160.615 276.794 156.568C275.56 154.481 274.181 152.503 272.766 150.543C271.543 148.791 270.097 147.206 268.465 145.825C265.253 143.23 261.207 142.196 257.432 144.428C257.251 144.532 257.075 144.648 256.906 144.773C253.023 147.44 250.301 152.83 248.414 156.967C242.97 168.689 239.849 180.702 236.764 193.042C236.183 195.419 235.603 197.796 235.058 200.191L220.632 247.371L200.291 292.228C193.008 301.626 183.688 309.249 173.033 314.524C162.377 319.798 150.664 322.587 138.775 322.677C89.3633 323.73 65.9185 279.127 65.9185 279.127C37.7739 232.963 29.4811 172.065 27.5032 152.594C27.0858 148.547 27.0677 146.134 27.0677 146.134C27.0654 140.035 28.7291 134.051 31.8791 128.829C35.0291 123.607 39.5459 119.344 44.9416 116.501C50.5207 113.674 56.7293 112.319 62.979 112.563C68.7933 112.807 74.4506 114.524 79.4194 117.554C83.2803 119.865 86.6176 122.955 89.2181 126.627C93.8635 133.232 94.916 141.452 95.8414 149.309C97.7631 166.541 101.132 183.58 105.913 200.246Z" fill="url(#paint17_linear_865_20287)"/>
<path d="M105.913 200.246C109.715 213.612 114.896 226.547 121.373 238.842C124.331 244.286 127.289 249.73 132.66 253.16C133.591 253.744 134.616 254.162 135.69 254.394C143.602 256.081 147.939 249.712 150.734 243.887C154.904 234.748 158.273 225.264 160.805 215.543C161.295 213.728 161.766 211.914 162.238 210.099C163.145 206.633 164.053 203.131 164.833 199.629L199.746 106.357C206.998 96.6987 216.4 88.861 227.206 83.4657C238.012 78.0703 249.927 75.2654 262.005 75.2732C279.398 75.1661 296.309 80.9907 309.947 91.7862C332.775 109.061 346.367 143.085 346.367 143.085C348.348 147.515 349.368 152.314 349.361 157.167C349.352 161.661 348.457 166.109 346.728 170.258C345 174.407 342.471 178.174 339.286 181.345C336.101 184.517 332.323 187.029 328.168 188.74C324.012 190.452 319.559 191.327 315.064 191.318C310.067 191.314 305.129 190.212 300.606 188.089C296.08 185.966 292.077 182.875 288.88 179.033L288.553 178.634C286.359 175.672 284.53 172.454 283.109 169.052C281.227 164.782 279.119 160.615 276.794 156.568C275.56 154.481 274.181 152.503 272.766 150.543C271.543 148.791 270.097 147.206 268.465 145.825C265.253 143.23 261.207 142.196 257.432 144.428C257.251 144.532 257.075 144.648 256.906 144.773C253.023 147.44 250.301 152.83 248.414 156.967C242.97 168.689 239.849 180.702 236.764 193.042C236.183 195.419 235.603 197.796 235.058 200.191L220.632 247.371L200.291 292.228C193.008 301.626 183.688 309.249 173.033 314.524C162.377 319.798 150.664 322.587 138.775 322.677C89.3633 323.73 65.9185 279.127 65.9185 279.127C37.7739 232.963 29.4811 172.065 27.5032 152.594C27.0858 148.547 27.0677 146.134 27.0677 146.134C27.0654 140.035 28.7291 134.051 31.8791 128.829C35.0291 123.607 39.5459 119.344 44.9416 116.501C50.5207 113.674 56.7293 112.319 62.979 112.563C68.7933 112.807 74.4506 114.524 79.4194 117.554C83.2803 119.865 86.6176 122.955 89.2181 126.627C93.8635 133.232 94.916 141.452 95.8414 149.309C97.7631 166.541 101.132 183.58 105.913 200.246Z" fill="url(#paint18_linear_865_20287)"/>
<path d="M105.913 200.246C109.715 213.612 114.896 226.547 121.373 238.842C124.331 244.286 127.289 249.73 132.66 253.16C133.591 253.744 134.616 254.162 135.69 254.394C143.602 256.081 147.939 249.712 150.734 243.887C154.904 234.748 158.273 225.264 160.805 215.543C161.295 213.728 161.766 211.914 162.238 210.099C163.145 206.633 164.053 203.131 164.833 199.629L199.746 106.357C206.998 96.6987 216.4 88.861 227.206 83.4657C238.012 78.0703 249.927 75.2654 262.005 75.2732C279.398 75.1661 296.309 80.9907 309.947 91.7862C332.775 109.061 346.367 143.085 346.367 143.085C348.348 147.515 349.368 152.314 349.361 157.167C349.352 161.661 348.457 166.109 346.728 170.258C345 174.407 342.471 178.174 339.286 181.345C336.101 184.517 332.323 187.029 328.168 188.74C324.012 190.452 319.559 191.327 315.064 191.318C310.067 191.314 305.129 190.212 300.606 188.089C296.08 185.966 292.077 182.875 288.88 179.033L288.553 178.634C286.359 175.672 284.53 172.454 283.109 169.052C281.227 164.782 279.119 160.615 276.794 156.568C275.56 154.481 274.181 152.503 272.766 150.543C271.543 148.791 270.097 147.206 268.465 145.825C265.253 143.23 261.207 142.196 257.432 144.428C257.251 144.532 257.075 144.648 256.906 144.773C253.023 147.44 250.301 152.83 248.414 156.967C242.97 168.689 239.849 180.702 236.764 193.042C236.183 195.419 235.603 197.796 235.058 200.191L220.632 247.371L200.291 292.228C193.008 301.626 183.688 309.249 173.033 314.524C162.377 319.798 150.664 322.587 138.775 322.677C89.3633 323.73 65.9185 279.127 65.9185 279.127C37.7739 232.963 29.4811 172.065 27.5032 152.594C27.0858 148.547 27.0677 146.134 27.0677 146.134C27.0654 140.035 28.7291 134.051 31.8791 128.829C35.0291 123.607 39.5459 119.344 44.9416 116.501C50.5207 113.674 56.7293 112.319 62.979 112.563C68.7933 112.807 74.4506 114.524 79.4194 117.554C83.2803 119.865 86.6176 122.955 89.2181 126.627C93.8635 133.232 94.916 141.452 95.8414 149.309C97.7631 166.541 101.132 183.58 105.913 200.246Z" fill="url(#paint19_linear_865_20287)"/>
<path d="M105.913 200.246C109.715 213.612 114.896 226.547 121.373 238.842C124.331 244.286 127.289 249.73 132.66 253.16C133.591 253.744 134.616 254.162 135.69 254.394C143.602 256.081 147.939 249.712 150.734 243.887C154.904 234.748 158.273 225.264 160.805 215.543C161.295 213.728 161.766 211.914 162.238 210.099C163.145 206.633 164.053 203.131 164.833 199.629L199.746 106.357C206.998 96.6987 216.4 88.861 227.206 83.4657C238.012 78.0703 249.927 75.2654 262.005 75.2732C279.398 75.1661 296.309 80.9907 309.947 91.7862C332.775 109.061 346.367 143.085 346.367 143.085C348.348 147.515 349.368 152.314 349.361 157.167C349.352 161.661 348.457 166.109 346.728 170.258C345 174.407 342.471 178.174 339.286 181.345C336.101 184.517 332.323 187.029 328.168 188.74C324.012 190.452 319.559 191.327 315.064 191.318C310.067 191.314 305.129 190.212 300.606 188.089C296.08 185.966 292.077 182.875 288.88 179.033L288.553 178.634C286.359 175.672 284.53 172.454 283.109 169.052C281.227 164.782 279.119 160.615 276.794 156.568C275.56 154.481 274.181 152.503 272.766 150.543C271.543 148.791 270.097 147.206 268.465 145.825C265.253 143.23 261.207 142.196 257.432 144.428C257.251 144.532 257.075 144.648 256.906 144.773C253.023 147.44 250.301 152.83 248.414 156.967C242.97 168.689 239.849 180.702 236.764 193.042C236.183 195.419 235.603 197.796 235.058 200.191L220.632 247.371L200.291 292.228C193.008 301.626 183.688 309.249 173.033 314.524C162.377 319.798 150.664 322.587 138.775 322.677C89.3633 323.73 65.9185 279.127 65.9185 279.127C37.7739 232.963 29.4811 172.065 27.5032 152.594C27.0858 148.547 27.0677 146.134 27.0677 146.134C27.0654 140.035 28.7291 134.051 31.8791 128.829C35.0291 123.607 39.5459 119.344 44.9416 116.501C50.5207 113.674 56.7293 112.319 62.979 112.563C68.7933 112.807 74.4506 114.524 79.4194 117.554C83.2803 119.865 86.6176 122.955 89.2181 126.627C93.8635 133.232 94.916 141.452 95.8414 149.309C97.7631 166.541 101.132 183.58 105.913 200.246Z" fill="url(#paint20_linear_865_20287)"/>
<path d="M177.552 165.641L199.745 106.375C206.997 96.7165 216.399 88.8789 227.205 83.4835C238.012 78.0882 249.926 75.2833 262.004 75.291C279.397 75.1839 296.308 81.0085 309.946 91.804C332.774 109.079 346.366 143.103 346.366 143.103C348.347 147.533 349.367 152.332 349.36 157.184C349.351 161.679 348.456 166.127 346.727 170.276C344.998 174.424 342.47 178.192 339.285 181.363C336.1 184.534 332.322 187.047 328.165 188.758C324.01 190.469 319.558 191.345 315.064 191.335C310.066 191.332 305.129 190.23 300.605 188.107C296.079 185.984 292.076 182.892 288.879 179.051L288.552 178.651C286.356 175.689 284.529 172.472 283.108 169.07C281.225 164.8 279.118 160.633 276.793 156.586C275.56 154.499 274.18 152.521 272.765 150.561C271.542 148.809 270.096 147.224 268.464 145.843C265.253 143.248 261.206 142.214 257.432 144.446C257.25 144.55 257.074 144.665 256.905 144.791C253.022 147.458 250.3 152.848 248.413 156.985C242.969 168.707 239.848 180.72 236.763 193.059C236.182 195.437 235.602 197.814 235.057 200.209L220.631 247.389L177.552 165.641Z" fill="url(#paint21_linear_865_20287)"/>
<path d="M338.781 112.708C335.897 112.702 333.027 113.061 330.234 113.779C336.6 122.977 342.004 132.803 346.366 143.103C348.347 147.533 349.367 152.332 349.36 157.184C349.351 161.679 348.456 166.127 346.727 170.276C344.998 174.424 342.47 178.192 339.285 181.363C336.101 184.534 332.323 187.047 328.165 188.758C324.01 190.469 319.559 191.345 315.064 191.335C308.988 191.324 303.026 189.695 297.789 186.617L294.268 199.628C287.881 220.986 283.381 229.242 283.381 229.242C280.902 235.033 277.951 240.61 274.562 245.919C272.221 249.385 269.227 252.869 265.126 254.193C263.699 254.69 262.175 254.84 260.68 254.629C259.061 254.433 257.499 253.908 256.089 253.086C253.392 251.058 251.248 248.389 249.847 245.32C248.112 241.913 246.555 238.418 245.183 234.85C242.153 227.482 237.471 209.336 237.471 209.336L232.626 190.337L227.781 171.193L224.333 158.618C215.26 125.864 202.703 109.75 202.703 109.75C192.833 95.6768 178.85 85.0024 162.672 79.1921C143.909 72.4599 124.221 76.2525 124.221 76.2525C93.3723 82.3133 77.1678 103.472 70.0364 113.652C73.3004 114.504 76.4237 115.824 79.3091 117.571C83.1702 119.882 86.5075 122.972 89.108 126.644C93.7534 133.249 94.8059 141.47 95.7313 149.327C97.6781 166.356 101.041 183.194 105.784 199.664C116.236 165.005 128.775 148.855 128.775 148.855C130.177 147.114 131.857 145.618 133.747 144.427C134.732 143.823 135.832 143.434 136.977 143.284C139.1 143.08 141.229 143.598 143.02 144.754C143.348 144.97 143.658 145.213 143.946 145.48C145.585 146.933 146.992 148.628 148.119 150.506C150.73 155.172 152.992 160.024 154.888 165.023C158.807 176.056 162.146 189.539 162.146 189.539L172.127 228.88C179.385 255.627 185.537 268.62 185.537 268.62C200.689 303.315 223.861 313.078 223.861 313.078C235.143 319.111 247.689 322.394 260.48 322.659C272.691 322.991 284.802 320.383 295.793 315.056C307.843 309.129 318.415 300.579 326.732 290.032C332.339 283.536 340.595 267.712 340.595 267.712C349.699 249.572 356.847 230.514 361.917 210.86C365.156 198.616 367.755 186.212 369.702 173.697C370.682 167.491 371.607 161.249 372.351 154.988C373.278 149.061 373.093 143.011 371.807 137.151C371.536 136.097 371.204 135.061 370.809 134.048C367.893 126.694 362.485 120.598 355.53 116.827C350.374 114.087 344.618 112.671 338.781 112.708Z" fill="url(#paint22_linear_865_20287)"/>
<path d="M338.781 112.708C335.897 112.702 333.027 113.061 330.234 113.779C336.6 122.977 342.004 132.803 346.366 143.103C348.347 147.533 349.367 152.332 349.36 157.184C349.351 161.679 348.456 166.127 346.727 170.276C344.998 174.424 342.47 178.192 339.285 181.363C336.101 184.534 332.323 187.047 328.165 188.758C324.01 190.469 319.559 191.345 315.064 191.335C308.988 191.324 303.026 189.695 297.789 186.617L294.268 199.628C287.881 220.986 283.381 229.242 283.381 229.242C280.902 235.033 277.951 240.61 274.562 245.919C272.221 249.385 269.227 252.869 265.126 254.193C263.699 254.69 262.175 254.84 260.68 254.629C259.061 254.433 257.499 253.908 256.089 253.086C253.392 251.058 251.248 248.389 249.847 245.32C248.112 241.913 246.555 238.418 245.183 234.85C242.153 227.482 237.471 209.336 237.471 209.336L232.626 190.337L227.781 171.193L224.333 158.618C215.26 125.864 202.703 109.75 202.703 109.75C192.833 95.6768 178.85 85.0024 162.672 79.1921C143.909 72.4599 124.221 76.2525 124.221 76.2525C93.3723 82.3133 77.1678 103.472 70.0364 113.652C73.3004 114.504 76.4237 115.824 79.3091 117.571C83.1702 119.882 86.5075 122.972 89.108 126.644C93.7534 133.249 94.8059 141.47 95.7313 149.327C97.6781 166.356 101.041 183.194 105.784 199.664C116.236 165.005 128.775 148.855 128.775 148.855C130.177 147.114 131.857 145.618 133.747 144.427C134.732 143.823 135.832 143.434 136.977 143.284C139.1 143.08 141.229 143.598 143.02 144.754C143.348 144.97 143.658 145.213 143.946 145.48C145.585 146.933 146.992 148.628 148.119 150.506C150.73 155.172 152.992 160.024 154.888 165.023C158.807 176.056 162.146 189.539 162.146 189.539L172.127 228.88C179.385 255.627 185.537 268.62 185.537 268.62C200.689 303.315 223.861 313.078 223.861 313.078C235.143 319.111 247.689 322.394 260.48 322.659C272.691 322.991 284.802 320.383 295.793 315.056C307.843 309.129 318.415 300.579 326.732 290.032C332.339 283.536 340.595 267.712 340.595 267.712C349.699 249.572 356.847 230.514 361.917 210.86C365.156 198.616 367.755 186.212 369.702 173.697C370.682 167.491 371.607 161.249 372.351 154.988C373.278 149.061 373.093 143.011 371.807 137.151C371.536 136.097 371.204 135.061 370.809 134.048C367.893 126.694 362.485 120.598 355.53 116.827C350.374 114.087 344.618 112.671 338.781 112.708Z" fill="url(#paint23_radial_865_20287)"/>
<path d="M338.781 112.708C335.897 112.702 333.027 113.061 330.234 113.779C336.6 122.977 342.004 132.803 346.366 143.103C348.347 147.533 349.367 152.332 349.36 157.184C349.351 161.679 348.456 166.127 346.727 170.276C344.998 174.424 342.47 178.192 339.285 181.363C336.101 184.534 332.323 187.047 328.165 188.758C324.01 190.469 319.559 191.345 315.064 191.335C308.988 191.324 303.026 189.695 297.789 186.617L294.268 199.628C287.881 220.986 283.381 229.242 283.381 229.242C280.902 235.033 277.951 240.61 274.562 245.919C272.221 249.385 269.227 252.869 265.126 254.193C263.699 254.69 262.175 254.84 260.68 254.629C259.061 254.433 257.499 253.908 256.089 253.086C253.392 251.058 251.248 248.389 249.847 245.32C248.112 241.913 246.555 238.418 245.183 234.85C242.153 227.482 237.471 209.336 237.471 209.336L232.626 190.337L227.781 171.193L224.333 158.618C215.26 125.864 202.703 109.75 202.703 109.75C192.833 95.6768 178.85 85.0024 162.672 79.1921C143.909 72.4599 124.221 76.2525 124.221 76.2525C93.3723 82.3133 77.1678 103.472 70.0364 113.652C73.3004 114.504 76.4237 115.824 79.3091 117.571C83.1702 119.882 86.5075 122.972 89.108 126.644C93.7534 133.249 94.8059 141.47 95.7313 149.327C97.6781 166.356 101.041 183.194 105.784 199.664C116.236 165.005 128.775 148.855 128.775 148.855C130.177 147.114 131.857 145.618 133.747 144.427C134.732 143.823 135.832 143.434 136.977 143.284C139.1 143.08 141.229 143.598 143.02 144.754C143.348 144.97 143.658 145.213 143.946 145.48C145.585 146.933 146.992 148.628 148.119 150.506C150.73 155.172 152.992 160.024 154.888 165.023C158.807 176.056 162.146 189.539 162.146 189.539L172.127 228.88C179.385 255.627 185.537 268.62 185.537 268.62C200.689 303.315 223.861 313.078 223.861 313.078C235.143 319.111 247.689 322.394 260.48 322.659C272.691 322.991 284.802 320.383 295.793 315.056C307.843 309.129 318.415 300.579 326.732 290.032C332.339 283.536 340.595 267.712 340.595 267.712C349.699 249.572 356.847 230.514 361.917 210.86C365.156 198.616 367.755 186.212 369.702 173.697C370.682 167.491 371.607 161.249 372.351 154.988C373.278 149.061 373.093 143.011 371.807 137.151C371.536 136.097 371.204 135.061 370.809 134.048C367.893 126.694 362.485 120.598 355.53 116.827C350.374 114.087 344.618 112.671 338.781 112.708Z" fill="url(#paint24_radial_865_20287)"/>
<path d="M338.781 112.708C335.897 112.702 333.027 113.061 330.234 113.779C336.6 122.977 342.004 132.803 346.366 143.103C348.347 147.533 349.367 152.332 349.36 157.184C349.351 161.679 348.456 166.127 346.727 170.276C344.998 174.424 342.47 178.192 339.285 181.363C336.101 184.534 332.323 187.047 328.165 188.758C324.01 190.469 319.559 191.345 315.064 191.335C308.988 191.324 303.026 189.695 297.789 186.617L294.268 199.628C287.881 220.986 283.381 229.242 283.381 229.242C280.902 235.033 277.951 240.61 274.562 245.919C272.221 249.385 269.227 252.869 265.126 254.193C263.699 254.69 262.175 254.84 260.68 254.629C259.061 254.433 257.499 253.908 256.089 253.086C253.392 251.058 251.248 248.389 249.847 245.32C248.112 241.913 246.555 238.418 245.183 234.85C242.153 227.482 237.471 209.336 237.471 209.336L232.626 190.337L227.781 171.193L224.333 158.618C215.26 125.864 202.703 109.75 202.703 109.75C192.833 95.6768 178.85 85.0024 162.672 79.1921C143.909 72.4599 124.221 76.2525 124.221 76.2525C93.3723 82.3133 77.1678 103.472 70.0364 113.652C73.3004 114.504 76.4237 115.824 79.3091 117.571C83.1702 119.882 86.5075 122.972 89.108 126.644C93.7534 133.249 94.8059 141.47 95.7313 149.327C97.6781 166.356 101.041 183.194 105.784 199.664C116.236 165.005 128.775 148.855 128.775 148.855C130.177 147.114 131.857 145.618 133.747 144.427C134.732 143.823 135.832 143.434 136.977 143.284C139.1 143.08 141.229 143.598 143.02 144.754C143.348 144.97 143.658 145.213 143.946 145.48C145.585 146.933 146.992 148.628 148.119 150.506C150.73 155.172 152.992 160.024 154.888 165.023C158.807 176.056 162.146 189.539 162.146 189.539L172.127 228.88C179.385 255.627 185.537 268.62 185.537 268.62C200.689 303.315 223.861 313.078 223.861 313.078C235.143 319.111 247.689 322.394 260.48 322.659C272.691 322.991 284.802 320.383 295.793 315.056C307.843 309.129 318.415 300.579 326.732 290.032C332.339 283.536 340.595 267.712 340.595 267.712C349.699 249.572 356.847 230.514 361.917 210.86C365.156 198.616 367.755 186.212 369.702 173.697C370.682 167.491 371.607 161.249 372.351 154.988C373.278 149.061 373.093 143.011 371.807 137.151C371.536 136.097 371.204 135.061 370.809 134.048C367.893 126.694 362.485 120.598 355.53 116.827C350.374 114.087 344.618 112.671 338.781 112.708Z" fill="url(#paint25_radial_865_20287)"/>
<path d="M338.781 112.708C335.897 112.702 333.027 113.061 330.234 113.779C336.6 122.977 342.004 132.803 346.366 143.103C348.347 147.533 349.367 152.332 349.36 157.184C349.351 161.679 348.456 166.127 346.727 170.276C344.998 174.424 342.47 178.192 339.285 181.363C336.101 184.534 332.323 187.047 328.165 188.758C324.01 190.469 319.559 191.345 315.064 191.335C308.988 191.324 303.026 189.695 297.789 186.617L294.268 199.628C287.881 220.986 283.381 229.242 283.381 229.242C280.902 235.033 277.951 240.61 274.562 245.919C272.221 249.385 269.227 252.869 265.126 254.193C263.699 254.69 262.175 254.84 260.68 254.629C259.061 254.433 257.499 253.908 256.089 253.086C253.392 251.058 251.248 248.389 249.847 245.32C248.112 241.913 246.555 238.418 245.183 234.85C242.153 227.482 237.471 209.336 237.471 209.336L232.626 190.337L227.781 171.193L224.333 158.618C215.26 125.864 202.703 109.75 202.703 109.75C192.833 95.6768 178.85 85.0024 162.672 79.1921C143.909 72.4599 124.221 76.2525 124.221 76.2525C93.3723 82.3133 77.1678 103.472 70.0364 113.652C73.3004 114.504 76.4237 115.824 79.3091 117.571C83.1702 119.882 86.5075 122.972 89.108 126.644C93.7534 133.249 94.8059 141.47 95.7313 149.327C97.6781 166.356 101.041 183.194 105.784 199.664C116.236 165.005 128.775 148.855 128.775 148.855C130.177 147.114 131.857 145.618 133.747 144.427C134.732 143.823 135.832 143.434 136.977 143.284C139.1 143.08 141.229 143.598 143.02 144.754C143.348 144.97 143.658 145.213 143.946 145.48C145.585 146.933 146.992 148.628 148.119 150.506C150.73 155.172 152.992 160.024 154.888 165.023C158.807 176.056 162.146 189.539 162.146 189.539L172.127 228.88C179.385 255.627 185.537 268.62 185.537 268.62C200.689 303.315 223.861 313.078 223.861 313.078C235.143 319.111 247.689 322.394 260.48 322.659C272.691 322.991 284.802 320.383 295.793 315.056C307.843 309.129 318.415 300.579 326.732 290.032C332.339 283.536 340.595 267.712 340.595 267.712C349.699 249.572 356.847 230.514 361.917 210.86C365.156 198.616 367.755 186.212 369.702 173.697C370.682 167.491 371.607 161.249 372.351 154.988C373.278 149.061 373.093 143.011 371.807 137.151C371.536 136.097 371.204 135.061 370.809 134.048C367.893 126.694 362.485 120.598 355.53 116.827C350.374 114.087 344.618 112.671 338.781 112.708Z" fill="url(#paint26_radial_865_20287)"/>
<path d="M338.781 112.708C335.897 112.702 333.027 113.061 330.234 113.779C336.6 122.977 342.004 132.803 346.366 143.103C348.347 147.533 349.367 152.332 349.36 157.184C349.351 161.679 348.456 166.127 346.727 170.276C344.998 174.424 342.47 178.192 339.285 181.363C336.101 184.534 332.323 187.047 328.165 188.758C324.01 190.469 319.559 191.345 315.064 191.335C308.988 191.324 303.026 189.695 297.789 186.617L294.268 199.628C287.881 220.986 283.381 229.242 283.381 229.242C280.902 235.033 277.951 240.61 274.562 245.919C272.221 249.385 269.227 252.869 265.126 254.193C263.699 254.69 262.175 254.84 260.68 254.629C259.061 254.433 257.499 253.908 256.089 253.086C253.392 251.058 251.248 248.389 249.847 245.32C248.112 241.913 246.555 238.418 245.183 234.85C242.153 227.482 237.471 209.336 237.471 209.336L232.626 190.337L227.781 171.193L224.333 158.618C215.26 125.864 202.703 109.75 202.703 109.75C192.833 95.6768 178.85 85.0024 162.672 79.1921C143.909 72.4599 124.221 76.2525 124.221 76.2525C93.3723 82.3133 77.1678 103.472 70.0364 113.652C73.3004 114.504 76.4237 115.824 79.3091 117.571C83.1702 119.882 86.5075 122.972 89.108 126.644C93.7534 133.249 94.8059 141.47 95.7313 149.327C97.6781 166.356 101.041 183.194 105.784 199.664C116.236 165.005 128.775 148.855 128.775 148.855C130.177 147.114 131.857 145.618 133.747 144.427C134.732 143.823 135.832 143.434 136.977 143.284C139.1 143.08 141.229 143.598 143.02 144.754C143.348 144.97 143.658 145.213 143.946 145.48C145.585 146.933 146.992 148.628 148.119 150.506C150.73 155.172 152.992 160.024 154.888 165.023C158.807 176.056 162.146 189.539 162.146 189.539L172.127 228.88C179.385 255.627 185.537 268.62 185.537 268.62C200.689 303.315 223.861 313.078 223.861 313.078C235.143 319.111 247.689 322.394 260.48 322.659C272.691 322.991 284.802 320.383 295.793 315.056C307.843 309.129 318.415 300.579 326.732 290.032C332.339 283.536 340.595 267.712 340.595 267.712C349.699 249.572 356.847 230.514 361.917 210.86C365.156 198.616 367.755 186.212 369.702 173.697C370.682 167.491 371.607 161.249 372.351 154.988C373.278 149.061 373.093 143.011 371.807 137.151C371.536 136.097 371.204 135.061 370.809 134.048C367.893 126.694 362.485 120.598 355.53 116.827C350.374 114.087 344.618 112.671 338.781 112.708Z" fill="url(#paint27_radial_865_20287)"/>
<path d="M338.781 112.708C335.897 112.702 333.027 113.061 330.234 113.779C336.6 122.977 342.004 132.803 346.366 143.103C348.347 147.533 349.367 152.332 349.36 157.184C349.351 161.679 348.456 166.127 346.727 170.276C344.998 174.424 342.47 178.192 339.285 181.363C336.101 184.534 332.323 187.047 328.165 188.758C324.01 190.469 319.559 191.345 315.064 191.335C308.988 191.324 303.026 189.695 297.789 186.617L294.268 199.628C287.881 220.986 283.381 229.242 283.381 229.242C280.902 235.033 277.951 240.61 274.562 245.919C272.221 249.385 269.227 252.869 265.126 254.193C263.699 254.69 262.175 254.84 260.68 254.629C259.061 254.433 257.499 253.908 256.089 253.086C253.392 251.058 251.248 248.389 249.847 245.32C248.112 241.913 246.555 238.418 245.183 234.85C242.153 227.482 237.471 209.336 237.471 209.336L232.626 190.337L227.781 171.193L224.333 158.618C215.26 125.864 202.703 109.75 202.703 109.75C192.833 95.6768 178.85 85.0024 162.672 79.1921C143.909 72.4599 124.221 76.2525 124.221 76.2525C93.3723 82.3133 77.1678 103.472 70.0364 113.652C73.3004 114.504 76.4237 115.824 79.3091 117.571C83.1702 119.882 86.5075 122.972 89.108 126.644C93.7534 133.249 94.8059 141.47 95.7313 149.327C97.6781 166.356 101.041 183.194 105.784 199.664C116.236 165.005 128.775 148.855 128.775 148.855C130.177 147.114 131.857 145.618 133.747 144.427C134.732 143.823 135.832 143.434 136.977 143.284C139.1 143.08 141.229 143.598 143.02 144.754C143.348 144.97 143.658 145.213 143.946 145.48C145.585 146.933 146.992 148.628 148.119 150.506C150.73 155.172 152.992 160.024 154.888 165.023C158.807 176.056 162.146 189.539 162.146 189.539L172.127 228.88C179.385 255.627 185.537 268.62 185.537 268.62C200.689 303.315 223.861 313.078 223.861 313.078C235.143 319.111 247.689 322.394 260.48 322.659C272.691 322.991 284.802 320.383 295.793 315.056C307.843 309.129 318.415 300.579 326.732 290.032C332.339 283.536 340.595 267.712 340.595 267.712C349.699 249.572 356.847 230.514 361.917 210.86C365.156 198.616 367.755 186.212 369.702 173.697C370.682 167.491 371.607 161.249 372.351 154.988C373.278 149.061 373.093 143.011 371.807 137.151C371.536 136.097 371.204 135.061 370.809 134.048C367.893 126.694 362.485 120.598 355.53 116.827C350.374 114.087 344.618 112.671 338.781 112.708Z" fill="url(#paint28_radial_865_20287)"/>
<path d="M338.781 112.708C335.897 112.702 333.027 113.061 330.234 113.779C336.6 122.977 342.004 132.803 346.366 143.103C348.347 147.533 349.367 152.332 349.36 157.184C349.351 161.679 348.456 166.127 346.727 170.276C344.998 174.424 342.47 178.192 339.285 181.363C336.101 184.534 332.323 187.047 328.165 188.758C324.01 190.469 319.559 191.345 315.064 191.335C308.988 191.324 303.026 189.695 297.789 186.617L294.268 199.628C287.881 220.986 283.381 229.242 283.381 229.242C280.902 235.033 277.951 240.61 274.562 245.919C272.221 249.385 269.227 252.869 265.126 254.193C263.699 254.69 262.175 254.84 260.68 254.629C259.061 254.433 257.499 253.908 256.089 253.086C253.392 251.058 251.248 248.389 249.847 245.32C248.112 241.913 246.555 238.418 245.183 234.85C242.153 227.482 237.471 209.336 237.471 209.336L232.626 190.337L227.781 171.193L224.333 158.618C215.26 125.864 202.703 109.75 202.703 109.75C192.833 95.6768 178.85 85.0024 162.672 79.1921C143.909 72.4599 124.221 76.2525 124.221 76.2525C93.3723 82.3133 77.1678 103.472 70.0364 113.652C73.3004 114.504 76.4237 115.824 79.3091 117.571C83.1702 119.882 86.5075 122.972 89.108 126.644C93.7534 133.249 94.8059 141.47 95.7313 149.327C97.6781 166.356 101.041 183.194 105.784 199.664C116.236 165.005 128.775 148.855 128.775 148.855C130.177 147.114 131.857 145.618 133.747 144.427C134.732 143.823 135.832 143.434 136.977 143.284C139.1 143.08 141.229 143.598 143.02 144.754C143.348 144.97 143.658 145.213 143.946 145.48C145.585 146.933 146.992 148.628 148.119 150.506C150.73 155.172 152.992 160.024 154.888 165.023C158.807 176.056 162.146 189.539 162.146 189.539L172.127 228.88C179.385 255.627 185.537 268.62 185.537 268.62C200.689 303.315 223.861 313.078 223.861 313.078C235.143 319.111 247.689 322.394 260.48 322.659C272.691 322.991 284.802 320.383 295.793 315.056C307.843 309.129 318.415 300.579 326.732 290.032C332.339 283.536 340.595 267.712 340.595 267.712C349.699 249.572 356.847 230.514 361.917 210.86C365.156 198.616 367.755 186.212 369.702 173.697C370.682 167.491 371.607 161.249 372.351 154.988C373.278 149.061 373.093 143.011 371.807 137.151C371.536 136.097 371.204 135.061 370.809 134.048C367.893 126.694 362.485 120.598 355.53 116.827C350.374 114.087 344.618 112.671 338.781 112.708Z" fill="url(#paint29_radial_865_20287)"/>
<path d="M338.781 112.708C335.897 112.702 333.027 113.061 330.234 113.779C336.6 122.977 342.004 132.803 346.366 143.103C348.347 147.533 349.367 152.332 349.36 157.184C349.351 161.679 348.456 166.127 346.727 170.276C344.998 174.424 342.47 178.192 339.285 181.363C336.101 184.534 332.323 187.047 328.165 188.758C324.01 190.469 319.559 191.345 315.064 191.335C308.988 191.324 303.026 189.695 297.789 186.617L294.268 199.628C287.881 220.986 283.381 229.242 283.381 229.242C280.902 235.033 277.951 240.61 274.562 245.919C272.221 249.385 269.227 252.869 265.126 254.193C263.699 254.69 262.175 254.84 260.68 254.629C259.061 254.433 257.499 253.908 256.089 253.086C253.392 251.058 251.248 248.389 249.847 245.32C248.112 241.913 246.555 238.418 245.183 234.85C242.153 227.482 237.471 209.336 237.471 209.336L232.626 190.337L227.781 171.193L224.333 158.618C215.26 125.864 202.703 109.75 202.703 109.75C192.833 95.6768 178.85 85.0024 162.672 79.1921C143.909 72.4599 124.221 76.2525 124.221 76.2525C93.3723 82.3133 77.1678 103.472 70.0364 113.652C73.3004 114.504 76.4237 115.824 79.3091 117.571C83.1702 119.882 86.5075 122.972 89.108 126.644C93.7534 133.249 94.8059 141.47 95.7313 149.327C97.6781 166.356 101.041 183.194 105.784 199.664C116.236 165.005 128.775 148.855 128.775 148.855C130.177 147.114 131.857 145.618 133.747 144.427C134.732 143.823 135.832 143.434 136.977 143.284C139.1 143.08 141.229 143.598 143.02 144.754C143.348 144.97 143.658 145.213 143.946 145.48C145.585 146.933 146.992 148.628 148.119 150.506C150.73 155.172 152.992 160.024 154.888 165.023C158.807 176.056 162.146 189.539 162.146 189.539L172.127 228.88C179.385 255.627 185.537 268.62 185.537 268.62C200.689 303.315 223.861 313.078 223.861 313.078C235.143 319.111 247.689 322.394 260.48 322.659C272.691 322.991 284.802 320.383 295.793 315.056C307.843 309.129 318.415 300.579 326.732 290.032C332.339 283.536 340.595 267.712 340.595 267.712C349.699 249.572 356.847 230.514 361.917 210.86C365.156 198.616 367.755 186.212 369.702 173.697C370.682 167.491 371.607 161.249 372.351 154.988C373.278 149.061 373.093 143.011 371.807 137.151C371.536 136.097 371.204 135.061 370.809 134.048C367.893 126.694 362.485 120.598 355.53 116.827C350.374 114.087 344.618 112.671 338.781 112.708Z" fill="url(#paint30_radial_865_20287)"/>
<path d="M338.781 112.708C335.897 112.702 333.027 113.061 330.234 113.779C336.6 122.977 342.004 132.803 346.366 143.103C348.347 147.533 349.367 152.332 349.36 157.184C349.351 161.679 348.456 166.127 346.727 170.276C344.998 174.424 342.47 178.192 339.285 181.363C336.101 184.534 332.323 187.047 328.165 188.758C324.01 190.469 319.559 191.345 315.064 191.335C308.988 191.324 303.026 189.695 297.789 186.617L294.268 199.628C287.881 220.986 283.381 229.242 283.381 229.242C280.902 235.033 277.951 240.61 274.562 245.919C272.221 249.385 269.227 252.869 265.126 254.193C263.699 254.69 262.175 254.84 260.68 254.629C259.061 254.433 257.499 253.908 256.089 253.086C253.392 251.058 251.248 248.389 249.847 245.32C248.112 241.913 246.555 238.418 245.183 234.85C242.153 227.482 237.471 209.336 237.471 209.336L232.626 190.337L227.781 171.193L224.333 158.618C215.26 125.864 202.703 109.75 202.703 109.75C192.833 95.6768 178.85 85.0024 162.672 79.1921C143.909 72.4599 124.221 76.2525 124.221 76.2525C93.3723 82.3133 77.1678 103.472 70.0364 113.652C73.3004 114.504 76.4237 115.824 79.3091 117.571C83.1702 119.882 86.5075 122.972 89.108 126.644C93.7534 133.249 94.8059 141.47 95.7313 149.327C97.6781 166.356 101.041 183.194 105.784 199.664C116.236 165.005 128.775 148.855 128.775 148.855C130.177 147.114 131.857 145.618 133.747 144.427C134.732 143.823 135.832 143.434 136.977 143.284C139.1 143.08 141.229 143.598 143.02 144.754C143.348 144.97 143.658 145.213 143.946 145.48C145.585 146.933 146.992 148.628 148.119 150.506C150.73 155.172 152.992 160.024 154.888 165.023C158.807 176.056 162.146 189.539 162.146 189.539L172.127 228.88C179.385 255.627 185.537 268.62 185.537 268.62C200.689 303.315 223.861 313.078 223.861 313.078C235.143 319.111 247.689 322.394 260.48 322.659C272.691 322.991 284.802 320.383 295.793 315.056C307.843 309.129 318.415 300.579 326.732 290.032C332.339 283.536 340.595 267.712 340.595 267.712C349.699 249.572 356.847 230.514 361.917 210.86C365.156 198.616 367.755 186.212 369.702 173.697C370.682 167.491 371.607 161.249 372.351 154.988C373.278 149.061 373.093 143.011 371.807 137.151C371.536 136.097 371.204 135.061 370.809 134.048C367.893 126.694 362.485 120.598 355.53 116.827C350.374 114.087 344.618 112.671 338.781 112.708Z" fill="url(#paint31_radial_865_20287)"/>
<path d="M338.781 112.708C335.897 112.702 333.027 113.061 330.234 113.779C336.6 122.977 342.004 132.803 346.366 143.103C348.347 147.533 349.367 152.332 349.36 157.184C349.351 161.679 348.456 166.127 346.727 170.276C344.998 174.424 342.47 178.192 339.285 181.363C336.101 184.534 332.323 187.047 328.165 188.758C324.01 190.469 319.559 191.345 315.064 191.335C308.988 191.324 303.026 189.695 297.789 186.617L294.268 199.628C287.881 220.986 283.381 229.242 283.381 229.242C280.902 235.033 277.951 240.61 274.562 245.919C272.221 249.385 269.227 252.869 265.126 254.193C263.699 254.69 262.175 254.84 260.68 254.629C259.061 254.433 257.499 253.908 256.089 253.086C253.392 251.058 251.248 248.389 249.847 245.32C248.112 241.913 246.555 238.418 245.183 234.85C242.153 227.482 237.471 209.336 237.471 209.336L232.626 190.337L227.781 171.193L224.333 158.618C215.26 125.864 202.703 109.75 202.703 109.75C192.833 95.6768 178.85 85.0024 162.672 79.1921C143.909 72.4599 124.221 76.2525 124.221 76.2525C93.3723 82.3133 77.1678 103.472 70.0364 113.652C73.3004 114.504 76.4237 115.824 79.3091 117.571C83.1702 119.882 86.5075 122.972 89.108 126.644C93.7534 133.249 94.8059 141.47 95.7313 149.327C97.6781 166.356 101.041 183.194 105.784 199.664C116.236 165.005 128.775 148.855 128.775 148.855C130.177 147.114 131.857 145.618 133.747 144.427C134.732 143.823 135.832 143.434 136.977 143.284C139.1 143.08 141.229 143.598 143.02 144.754C143.348 144.97 143.658 145.213 143.946 145.48C145.585 146.933 146.992 148.628 148.119 150.506C150.73 155.172 152.992 160.024 154.888 165.023C158.807 176.056 162.146 189.539 162.146 189.539L172.127 228.88C179.385 255.627 185.537 268.62 185.537 268.62C200.689 303.315 223.861 313.078 223.861 313.078C235.143 319.111 247.689 322.394 260.48 322.659C272.691 322.991 284.802 320.383 295.793 315.056C307.843 309.129 318.415 300.579 326.732 290.032C332.339 283.536 340.595 267.712 340.595 267.712C349.699 249.572 356.847 230.514 361.917 210.86C365.156 198.616 367.755 186.212 369.702 173.697C370.682 167.491 371.607 161.249 372.351 154.988C373.278 149.061 373.093 143.011 371.807 137.151C371.536 136.097 371.204 135.061 370.809 134.048C367.893 126.694 362.485 120.598 355.53 116.827C350.374 114.087 344.618 112.671 338.781 112.708Z" fill="url(#paint32_radial_865_20287)"/>
<path d="M338.781 112.708C335.897 112.702 333.027 113.061 330.234 113.779C336.6 122.977 342.004 132.803 346.366 143.103C348.347 147.533 349.367 152.332 349.36 157.184C349.351 161.679 348.456 166.127 346.727 170.276C344.998 174.424 342.47 178.192 339.285 181.363C336.101 184.534 332.323 187.047 328.165 188.758C324.01 190.469 319.559 191.345 315.064 191.335C308.988 191.324 303.026 189.695 297.789 186.617L294.268 199.628C287.881 220.986 283.381 229.242 283.381 229.242C280.902 235.033 277.951 240.61 274.562 245.919C272.221 249.385 269.227 252.869 265.126 254.193C263.699 254.69 262.175 254.84 260.68 254.629C259.061 254.433 257.499 253.908 256.089 253.086C253.392 251.058 251.248 248.389 249.847 245.32C248.112 241.913 246.555 238.418 245.183 234.85C242.153 227.482 237.471 209.336 237.471 209.336L232.626 190.337L227.781 171.193L224.333 158.618C215.26 125.864 202.703 109.75 202.703 109.75C192.833 95.6768 178.85 85.0024 162.672 79.1921C143.909 72.4599 124.221 76.2525 124.221 76.2525C93.3723 82.3133 77.1678 103.472 70.0364 113.652C73.3004 114.504 76.4237 115.824 79.3091 117.571C83.1702 119.882 86.5075 122.972 89.108 126.644C93.7534 133.249 94.8059 141.47 95.7313 149.327C97.6781 166.356 101.041 183.194 105.784 199.664C116.236 165.005 128.775 148.855 128.775 148.855C130.177 147.114 131.857 145.618 133.747 144.427C134.732 143.823 135.832 143.434 136.977 143.284C139.1 143.08 141.229 143.598 143.02 144.754C143.348 144.97 143.658 145.213 143.946 145.48C145.585 146.933 146.992 148.628 148.119 150.506C150.73 155.172 152.992 160.024 154.888 165.023C158.807 176.056 162.146 189.539 162.146 189.539L172.127 228.88C179.385 255.627 185.537 268.62 185.537 268.62C200.689 303.315 223.861 313.078 223.861 313.078C235.143 319.111 247.689 322.394 260.48 322.659C272.691 322.991 284.802 320.383 295.793 315.056C307.843 309.129 318.415 300.579 326.732 290.032C332.339 283.536 340.595 267.712 340.595 267.712C349.699 249.572 356.847 230.514 361.917 210.86C365.156 198.616 367.755 186.212 369.702 173.697C370.682 167.491 371.607 161.249 372.351 154.988C373.278 149.061 373.093 143.011 371.807 137.151C371.536 136.097 371.204 135.061 370.809 134.048C367.893 126.694 362.485 120.598 355.53 116.827C350.374 114.087 344.618 112.671 338.781 112.708Z" fill="url(#paint33_radial_865_20287)"/>
<path d="M338.781 112.708C335.897 112.702 333.027 113.061 330.234 113.779C336.6 122.977 342.004 132.803 346.366 143.103C348.347 147.533 349.367 152.332 349.36 157.184C349.351 161.679 348.456 166.127 346.727 170.276C344.998 174.424 342.47 178.192 339.285 181.363C336.101 184.534 332.323 187.047 328.165 188.758C324.01 190.469 319.559 191.345 315.064 191.335C308.988 191.324 303.026 189.695 297.789 186.617L294.268 199.628C287.881 220.986 283.381 229.242 283.381 229.242C280.902 235.033 277.951 240.61 274.562 245.919C272.221 249.385 269.227 252.869 265.126 254.193C263.699 254.69 262.175 254.84 260.68 254.629C259.061 254.433 257.499 253.908 256.089 253.086C253.392 251.058 251.248 248.389 249.847 245.32C248.112 241.913 246.555 238.418 245.183 234.85C242.153 227.482 237.471 209.336 237.471 209.336L232.626 190.337L227.781 171.193L224.333 158.618C215.26 125.864 202.703 109.75 202.703 109.75C192.833 95.6768 178.85 85.0024 162.672 79.1921C143.909 72.4599 124.221 76.2525 124.221 76.2525C93.3723 82.3133 77.1678 103.472 70.0364 113.652C73.3004 114.504 76.4237 115.824 79.3091 117.571C83.1702 119.882 86.5075 122.972 89.108 126.644C93.7534 133.249 94.8059 141.47 95.7313 149.327C97.6781 166.356 101.041 183.194 105.784 199.664C116.236 165.005 128.775 148.855 128.775 148.855C130.177 147.114 131.857 145.618 133.747 144.427C134.732 143.823 135.832 143.434 136.977 143.284C139.1 143.08 141.229 143.598 143.02 144.754C143.348 144.97 143.658 145.213 143.946 145.48C145.585 146.933 146.992 148.628 148.119 150.506C150.73 155.172 152.992 160.024 154.888 165.023C158.807 176.056 162.146 189.539 162.146 189.539L172.127 228.88C179.385 255.627 185.537 268.62 185.537 268.62C200.689 303.315 223.861 313.078 223.861 313.078C235.143 319.111 247.689 322.394 260.48 322.659C272.691 322.991 284.802 320.383 295.793 315.056C307.843 309.129 318.415 300.579 326.732 290.032C332.339 283.536 340.595 267.712 340.595 267.712C349.699 249.572 356.847 230.514 361.917 210.86C365.156 198.616 367.755 186.212 369.702 173.697C370.682 167.491 371.607 161.249 372.351 154.988C373.278 149.061 373.093 143.011 371.807 137.151C371.536 136.097 371.204 135.061 370.809 134.048C367.893 126.694 362.485 120.598 355.53 116.827C350.374 114.087 344.618 112.671 338.781 112.708Z" fill="url(#paint34_radial_865_20287)"/>
<path d="M338.781 112.708C335.897 112.702 333.027 113.061 330.234 113.779C336.6 122.977 342.004 132.803 346.366 143.103C348.347 147.533 349.367 152.332 349.36 157.184C349.351 161.679 348.456 166.127 346.727 170.276C344.998 174.424 342.47 178.192 339.285 181.363C336.101 184.534 332.323 187.047 328.165 188.758C324.01 190.469 319.559 191.345 315.064 191.335C308.988 191.324 303.026 189.695 297.789 186.617L294.268 199.628C287.881 220.986 283.381 229.242 283.381 229.242C280.902 235.033 277.951 240.61 274.562 245.919C272.221 249.385 269.227 252.869 265.126 254.193C263.699 254.69 262.175 254.84 260.68 254.629C259.061 254.433 257.499 253.908 256.089 253.086C253.392 251.058 251.248 248.389 249.847 245.32C248.112 241.913 246.555 238.418 245.183 234.85C242.153 227.482 237.471 209.336 237.471 209.336L232.626 190.337L227.781 171.193L224.333 158.618C215.26 125.864 202.703 109.75 202.703 109.75C192.833 95.6768 178.85 85.0024 162.672 79.1921C143.909 72.4599 124.221 76.2525 124.221 76.2525C93.3723 82.3133 77.1678 103.472 70.0364 113.652C73.3004 114.504 76.4237 115.824 79.3091 117.571C83.1702 119.882 86.5075 122.972 89.108 126.644C93.7534 133.249 94.8059 141.47 95.7313 149.327C97.6781 166.356 101.041 183.194 105.784 199.664C116.236 165.005 128.775 148.855 128.775 148.855C130.177 147.114 131.857 145.618 133.747 144.427C134.732 143.823 135.832 143.434 136.977 143.284C139.1 143.08 141.229 143.598 143.02 144.754C143.348 144.97 143.658 145.213 143.946 145.48C145.585 146.933 146.992 148.628 148.119 150.506C150.73 155.172 152.992 160.024 154.888 165.023C158.807 176.056 162.146 189.539 162.146 189.539L172.127 228.88C179.385 255.627 185.537 268.62 185.537 268.62C200.689 303.315 223.861 313.078 223.861 313.078C235.143 319.111 247.689 322.394 260.48 322.659C272.691 322.991 284.802 320.383 295.793 315.056C307.843 309.129 318.415 300.579 326.732 290.032C332.339 283.536 340.595 267.712 340.595 267.712C349.699 249.572 356.847 230.514 361.917 210.86C365.156 198.616 367.755 186.212 369.702 173.697C370.682 167.491 371.607 161.249 372.351 154.988C373.278 149.061 373.093 143.011 371.807 137.151C371.536 136.097 371.204 135.061 370.809 134.048C367.893 126.694 362.485 120.598 355.53 116.827C350.374 114.087 344.618 112.671 338.781 112.708Z" fill="url(#paint35_linear_865_20287)"/>
</g>
<defs>
<linearGradient id="paint0_linear_865_20287" x1="200" y1="0" x2="200" y2="400" gradientUnits="userSpaceOnUse">
<stop stop-color="#313131"/>
<stop offset="1" stop-color="#070707"/>
<stop offset="1" stop-color="#020202"/>
</linearGradient>
<linearGradient id="paint1_linear_865_20287" x1="42.5645" y1="242.363" x2="311.562" y2="133.631" gradientUnits="userSpaceOnUse">
<stop offset="0.13" stop-color="#1CBBF3"/>
<stop offset="0.34" stop-color="#1F99A5"/>
<stop offset="0.45" stop-color="#209CA6"/>
<stop offset="0.51" stop-color="#24A4AA"/>
<stop offset="0.57" stop-color="#2BB3B0"/>
<stop offset="0.6" stop-color="#30BDB4"/>
<stop offset="0.79" stop-color="#38BA90"/>
<stop offset="1" stop-color="#60F05A"/>
</linearGradient>
<radialGradient id="paint2_radial_865_20287" cx="0" cy="0" r="1" gradientUnits="userSpaceOnUse" gradientTransform="translate(221.634 178.491) rotate(74.32) scale(128.565 97.7097)">
<stop stop-color="#227B60"/>
<stop offset="0.14" stop-color="#227B60" stop-opacity="0.81"/>
<stop offset="0.58" stop-color="#227B60" stop-opacity="0.23"/>
<stop offset="0.78" stop-color="#227B60" stop-opacity="0"/>
</radialGradient>
<radialGradient id="paint3_radial_865_20287" cx="0" cy="0" r="1" gradientUnits="userSpaceOnUse" gradientTransform="translate(240.281 169.557) rotate(91.1458) scale(86.9374 66.0634)">
<stop stop-color="#227B60"/>
<stop offset="0.25" stop-color="#227B60" stop-opacity="0.7"/>
<stop offset="0.71" stop-color="#227B60" stop-opacity="0.2"/>
<stop offset="0.92" stop-color="#227B60" stop-opacity="0"/>
</radialGradient>
<radialGradient id="paint4_radial_865_20287" cx="0" cy="0" r="1" gradientUnits="userSpaceOnUse" gradientTransform="translate(236.927 172.746) rotate(88.6) scale(81.0406 57.5388)">
<stop stop-color="#227B60"/>
<stop offset="0.07" stop-color="#227B60" stop-opacity="0.9"/>
<stop offset="0.34" stop-color="#227B60" stop-opacity="0.51"/>
<stop offset="0.59" stop-color="#227B60" stop-opacity="0.23"/>
<stop offset="0.79" stop-color="#227B60" stop-opacity="0.06"/>
<stop offset="0.92" stop-color="#227B60" stop-opacity="0"/>
</radialGradient>
<radialGradient id="paint5_radial_865_20287" cx="0" cy="0" r="1" gradientUnits="userSpaceOnUse" gradientTransform="translate(238.299 169.052) rotate(88.6) scale(65.435 46.4588)">
<stop stop-color="#227B60"/>
<stop offset="0.36" stop-color="#227B60" stop-opacity="0.63"/>
<stop offset="0.92" stop-color="#227B60" stop-opacity="0"/>
</radialGradient>
<radialGradient id="paint6_radial_865_20287" cx="0" cy="0" r="1" gradientUnits="userSpaceOnUse" gradientTransform="translate(241.153 172.73) rotate(88.6) scale(52.1883 33.4005)">
<stop stop-color="#20735A"/>
<stop offset="0.15" stop-color="#20745A" stop-opacity="0.93"/>
<stop offset="0.38" stop-color="#21755C" stop-opacity="0.74"/>
<stop offset="0.67" stop-color="#21785D" stop-opacity="0.43"/>
<stop offset="1" stop-color="#227B60" stop-opacity="0"/>
</radialGradient>
<radialGradient id="paint7_radial_865_20287" cx="0" cy="0" r="1" gradientUnits="userSpaceOnUse" gradientTransform="translate(248.145 181.055) rotate(23.8) scale(83.9803 62.9852)">
<stop stop-color="#227A61"/>
<stop offset="0.36" stop-color="#227A61" stop-opacity="0.56"/>
<stop offset="0.72" stop-color="#227A61" stop-opacity="0.16"/>
<stop offset="0.9" stop-color="#227A61" stop-opacity="0"/>
</radialGradient>
<radialGradient id="paint8_radial_865_20287" cx="0" cy="0" r="1" gradientUnits="userSpaceOnUse" gradientTransform="translate(225.887 49.8377) rotate(35.2724) scale(111.998 102.405)">
<stop stop-color="#3CD9C3"/>
<stop offset="0.07" stop-color="#3BD7C1" stop-opacity="0.9"/>
<stop offset="0.41" stop-color="#38CEB9" stop-opacity="0.42"/>
<stop offset="0.65" stop-color="#36C8B4" stop-opacity="0.12"/>
<stop offset="0.76" stop-color="#35C6B2" stop-opacity="0"/>
</radialGradient>
<radialGradient id="paint9_radial_865_20287" cx="0" cy="0" r="1" gradientUnits="userSpaceOnUse" gradientTransform="translate(97311.5 -50777.2) rotate(35.2724) scale(19892 13963.1)">
<stop stop-color="#3CD9C3"/>
<stop offset="0.07" stop-color="#3BD7C1" stop-opacity="0.9"/>
<stop offset="0.41" stop-color="#38CEB9" stop-opacity="0.42"/>
<stop offset="0.65" stop-color="#36C8B4" stop-opacity="0.12"/>
<stop offset="0.76" stop-color="#35C6B2" stop-opacity="0"/>
</radialGradient>
<radialGradient id="paint10_radial_865_20287" cx="0" cy="0" r="1" gradientUnits="userSpaceOnUse" gradientTransform="translate(270.496 200.388) rotate(100.972) scale(98.7776 122.062)">
<stop stop-color="#237F66" stop-opacity="0.8"/>
<stop offset="0.06" stop-color="#2C8C70" stop-opacity="0.65"/>
<stop offset="0.21" stop-color="#3DA785" stop-opacity="0.37"/>
<stop offset="0.35" stop-color="#4ABA93" stop-opacity="0.17"/>
<stop offset="0.47" stop-color="#51C59C" stop-opacity="0.04"/>
<stop offset="0.56" stop-color="#54C99F" stop-opacity="0"/>
</radialGradient>
<radialGradient id="paint11_radial_865_20287" cx="0" cy="0" r="1" gradientUnits="userSpaceOnUse" gradientTransform="translate(209.316 207.416) rotate(-50.82) scale(129.073 139.399)">
<stop stop-color="#167C8A"/>
<stop offset="0.04" stop-color="#167C8A" stop-opacity="0.93"/>
<stop offset="0.33" stop-color="#177F8D" stop-opacity="0.43"/>
<stop offset="0.54" stop-color="#17818F" stop-opacity="0.12"/>
<stop offset="0.65" stop-color="#178290" stop-opacity="0"/>
</radialGradient>
<radialGradient id="paint12_radial_865_20287" cx="0" cy="0" r="1" gradientUnits="userSpaceOnUse" gradientTransform="translate(201.573 220.455) rotate(-31.66) scale(125.916 99.4737)">
<stop offset="0.05" stop-color="#177D87"/>
<stop offset="0.11" stop-color="#177E89" stop-opacity="0.8"/>
<stop offset="0.21" stop-color="#177F8B" stop-opacity="0.52"/>
<stop offset="0.32" stop-color="#17818D" stop-opacity="0.29"/>
<stop offset="0.42" stop-color="#17818F" stop-opacity="0.13"/>
<stop offset="0.51" stop-color="#178290" stop-opacity="0.03"/>
<stop offset="0.6" stop-color="#178290" stop-opacity="0"/>
</radialGradient>
<radialGradient id="paint13_radial_865_20287" cx="0" cy="0" r="1" gradientUnits="userSpaceOnUse" gradientTransform="translate(170.523 222.626) rotate(-130.539) scale(75.0199 59.0722)">
<stop offset="0.26" stop-color="#177F8A"/>
<stop offset="0.27" stop-color="#177F8A" stop-opacity="0.98"/>
<stop offset="0.38" stop-color="#17808C" stop-opacity="0.68"/>
<stop offset="0.5" stop-color="#17818D" stop-opacity="0.43"/>
<stop offset="0.62" stop-color="#17818F" stop-opacity="0.24"/>
<stop offset="0.74" stop-color="#17828F" stop-opacity="0.11"/>
<stop offset="0.86" stop-color="#178290" stop-opacity="0.03"/>
<stop offset="1" stop-color="#178290" stop-opacity="0"/>
</radialGradient>
<radialGradient id="paint14_radial_865_20287" cx="0" cy="0" r="1" gradientUnits="userSpaceOnUse" gradientTransform="translate(156.923 241.067) rotate(-173.11) scale(70.3707)">
<stop stop-color="#13656E"/>
<stop offset="0.11" stop-color="#13646E" stop-opacity="0.73"/>
<stop offset="0.27" stop-color="#12646E" stop-opacity="0.41"/>
<stop offset="0.42" stop-color="#12636E" stop-opacity="0.18"/>
<stop offset="0.55" stop-color="#12636E" stop-opacity="0.05"/>
<stop offset="0.66" stop-color="#12636E" stop-opacity="0"/>
</radialGradient>
<radialGradient id="paint15_radial_865_20287" cx="0" cy="0" r="1" gradientUnits="userSpaceOnUse" gradientTransform="translate(155.077 251.547) rotate(-119.32) scale(49.2123 41.3383)">
<stop offset="0.13" stop-color="#146A73"/>
<stop offset="0.24" stop-color="#156F79" stop-opacity="0.79"/>
<stop offset="0.45" stop-color="#167783" stop-opacity="0.45"/>
<stop offset="0.65" stop-color="#167D8A" stop-opacity="0.2"/>
<stop offset="0.82" stop-color="#17818E" stop-opacity="0.05"/>
<stop offset="0.95" stop-color="#178290" stop-opacity="0"/>
</radialGradient>
<radialGradient id="paint16_radial_865_20287" cx="0" cy="0" r="1" gradientUnits="userSpaceOnUse" gradientTransform="translate(151.242 231.036) rotate(-55.9925) scale(46.2941 36.6751)">
<stop stop-color="#198E9C"/>
<stop offset="0.1" stop-color="#198E9C" stop-opacity="0.87"/>
<stop offset="0.41" stop-color="#198E9C" stop-opacity="0.5"/>
<stop offset="0.67" stop-color="#198E9C" stop-opacity="0.23"/>
<stop offset="0.88" stop-color="#198E9C" stop-opacity="0.06"/>
<stop offset="1" stop-color="#198E9C" stop-opacity="0"/>
</radialGradient>
<linearGradient id="paint17_linear_865_20287" x1="59.8941" y1="69.5572" x2="178.57" y2="179.396" gradientUnits="userSpaceOnUse">
<stop offset="0.13" stop-color="#2BF9FF"/>
<stop offset="0.27" stop-color="#29F9FF" stop-opacity="0.64"/>
<stop offset="0.4" stop-color="#27FAFF" stop-opacity="0.3"/>
<stop offset="0.49" stop-color="#26FAFF" stop-opacity="0.08"/>
<stop offset="0.54" stop-color="#26FAFF" stop-opacity="0"/>
</linearGradient>
<linearGradient id="paint18_linear_865_20287" x1="-7.31916" y1="248.805" x2="131.317" y2="209.5" gradientUnits="userSpaceOnUse">
<stop stop-color="#26FAFF"/>
<stop offset="0.06" stop-color="#26FAFF" stop-opacity="0.88"/>
<stop offset="0.24" stop-color="#26FAFF" stop-opacity="0.51"/>
<stop offset="0.39" stop-color="#26FAFF" stop-opacity="0.23"/>
<stop offset="0.5" stop-color="#26FAFF" stop-opacity="0.06"/>
<stop offset="0.55" stop-color="#26FAFF" stop-opacity="0"/>
</linearGradient>
<linearGradient id="paint19_linear_865_20287" x1="29.4085" y1="243.978" x2="185.665" y2="188.287" gradientUnits="userSpaceOnUse">
<stop stop-color="#21DEFF"/>
<stop offset="0.04" stop-color="#21DEFF" stop-opacity="0.88"/>
<stop offset="0.17" stop-color="#21DEFF" stop-opacity="0.51"/>
<stop offset="0.27" stop-color="#21DEFF" stop-opacity="0.23"/>
<stop offset="0.34" stop-color="#21DEFF" stop-opacity="0.06"/>
<stop offset="0.38" stop-color="#21DEFF" stop-opacity="0"/>
</linearGradient>
<linearGradient id="paint20_linear_865_20287" x1="177.88" y1="163.373" x2="265.272" y2="305.91" gradientUnits="userSpaceOnUse">
<stop offset="0.62" stop-color="#21DEFF" stop-opacity="0"/>
<stop offset="0.66" stop-color="#21DEFF" stop-opacity="0.06"/>
<stop offset="0.73" stop-color="#21DEFF" stop-opacity="0.23"/>
<stop offset="0.83" stop-color="#21DEFF" stop-opacity="0.51"/>
<stop offset="0.96" stop-color="#21DEFF" stop-opacity="0.88"/>
<stop offset="1" stop-color="#21DEFF"/>
</linearGradient>
<linearGradient id="paint21_linear_865_20287" x1="275.142" y1="216.631" x2="261.387" y2="149.581" gradientUnits="userSpaceOnUse">
<stop stop-color="#44B044"/>
<stop offset="0.11" stop-color="#44B044" stop-opacity="0.8"/>
<stop offset="0.27" stop-color="#44B044" stop-opacity="0.52"/>
<stop offset="0.43" stop-color="#44B044" stop-opacity="0.29"/>
<stop offset="0.58" stop-color="#44B044" stop-opacity="0.13"/>
<stop offset="0.7" stop-color="#44B044" stop-opacity="0.03"/>
<stop offset="0.8" stop-color="#44B044" stop-opacity="0"/>
</linearGradient>
<linearGradient id="paint22_linear_865_20287" x1="83.3557" y1="147.131" x2="372.66" y2="242.906" gradientUnits="userSpaceOnUse">
<stop stop-color="#3066FB"/>
<stop offset="0.38" stop-color="#2F64F7"/>
<stop offset="0.74" stop-color="#2857D9"/>
<stop offset="1" stop-color="#3C7EFF"/>
</linearGradient>
<radialGradient id="paint23_radial_865_20287" cx="0" cy="0" r="1" gradientUnits="userSpaceOnUse" gradientTransform="translate(287.578 190.844) rotate(98.69) scale(154.714 102.111)">
<stop stop-color="#1A3D9C"/>
<stop offset="0.4" stop-color="#1A3D9C" stop-opacity="0.42"/>
<stop offset="0.7" stop-color="#1A3D9C" stop-opacity="0"/>
</radialGradient>
<radialGradient id="paint24_radial_865_20287" cx="0" cy="0" r="1" gradientUnits="userSpaceOnUse" gradientTransform="translate(45543 75359.9) rotate(98.69) scale(19030.9 10263.2)">
<stop stop-color="#1A3D9C"/>
<stop offset="0.4" stop-color="#1A3D9C" stop-opacity="0.42"/>
<stop offset="0.7" stop-color="#1A3D9C" stop-opacity="0"/>
</radialGradient>
<radialGradient id="paint25_radial_865_20287" cx="0" cy="0" r="1" gradientUnits="userSpaceOnUse" gradientTransform="translate(34411.4 72071.6) rotate(98.6156) scale(22664.7 9365.09)">
<stop stop-color="#1A3D9C"/>
<stop offset="0.4" stop-color="#1A3D9C" stop-opacity="0.42"/>
<stop offset="0.7" stop-color="#1A3D9C" stop-opacity="0"/>
</radialGradient>
<radialGradient id="paint26_radial_865_20287" cx="0" cy="0" r="1" gradientUnits="userSpaceOnUse" gradientTransform="translate(262.961 180.424) rotate(83.0888) scale(135.233 94.3568)">
<stop stop-color="#1A3D9C"/>
<stop offset="0.16" stop-color="#1A3D9C" stop-opacity="0.69"/>
<stop offset="0.33" stop-color="#1A3D9C" stop-opacity="0.4"/>
<stop offset="0.49" stop-color="#1A3D9C" stop-opacity="0.18"/>
<stop offset="0.61" stop-color="#1A3D9C" stop-opacity="0.05"/>
<stop offset="0.7" stop-color="#1A3D9C" stop-opacity="0"/>
</radialGradient>
<radialGradient id="paint27_radial_865_20287" cx="0" cy="0" r="1" gradientUnits="userSpaceOnUse" gradientTransform="translate(292.757 205.748) rotate(74.64) scale(129.963 88.3746)">
<stop stop-color="#18388F"/>
<stop offset="0.37" stop-color="#193B96" stop-opacity="0.45"/>
<stop offset="0.7" stop-color="#1A3D9C" stop-opacity="0"/>
</radialGradient>
<radialGradient id="paint28_radial_865_20287" cx="0" cy="0" r="1" gradientUnits="userSpaceOnUse" gradientTransform="translate(279.811 240.387) rotate(74.64) scale(60.4266 57.4053)">
<stop stop-color="#18388F"/>
<stop offset="0.09" stop-color="#183992" stop-opacity="0.78"/>
<stop offset="0.22" stop-color="#193B96" stop-opacity="0.5"/>
<stop offset="0.35" stop-color="#193C98" stop-opacity="0.28"/>
<stop offset="0.47" stop-color="#1A3C9A" stop-opacity="0.13"/>
<stop offset="0.59" stop-color="#1A3D9C" stop-opacity="0.03"/>
<stop offset="0.7" stop-color="#1A3D9C" stop-opacity="0"/>
</radialGradient>
<radialGradient id="paint29_radial_865_20287" cx="0" cy="0" r="1" gradientUnits="userSpaceOnUse" gradientTransform="translate(281.261 250.695) rotate(74.64) scale(60.4266 57.4053)">
<stop stop-color="#1A3D9C" stop-opacity="0.8"/>
<stop offset="0.01" stop-color="#1A3D9C" stop-opacity="0.78"/>
<stop offset="0.24" stop-color="#1A3D9C" stop-opacity="0.45"/>
<stop offset="0.44" stop-color="#1A3D9C" stop-opacity="0.2"/>
<stop offset="0.6" stop-color="#1A3D9C" stop-opacity="0.05"/>
<stop offset="0.7" stop-color="#1A3D9C" stop-opacity="0"/>
</radialGradient>
<radialGradient id="paint30_radial_865_20287" cx="0" cy="0" r="1" gradientUnits="userSpaceOnUse" gradientTransform="translate(124.892 215.101) rotate(67.0273) scale(144.208 95.6956)">
<stop stop-color="#1A3D9C"/>
<stop offset="0.4" stop-color="#1A3D9C" stop-opacity="0.56"/>
<stop offset="0.48" stop-color="#1A3D9C" stop-opacity="0.43"/>
<stop offset="0.69" stop-color="#1A3D9C" stop-opacity="0.12"/>
<stop offset="0.79" stop-color="#1A3D9C" stop-opacity="0"/>
</radialGradient>
<radialGradient id="paint31_radial_865_20287" cx="0" cy="0" r="1" gradientUnits="userSpaceOnUse" gradientTransform="translate(115.662 181.309) rotate(76.1028) scale(106.964 70.6164)">
<stop stop-color="#1A3D9C"/>
<stop offset="0.06" stop-color="#1A3D9C" stop-opacity="0.88"/>
<stop offset="0.21" stop-color="#1A3D9C" stop-opacity="0.61"/>
<stop offset="0.36" stop-color="#1A3D9C" stop-opacity="0.39"/>
<stop offset="0.51" stop-color="#1A3D9C" stop-opacity="0.22"/>
<stop offset="0.67" stop-color="#1A3D9C" stop-opacity="0.1"/>
<stop offset="0.83" stop-color="#1A3D9C" stop-opacity="0.02"/>
<stop offset="1" stop-color="#1A3D9C" stop-opacity="0"/>
</radialGradient>
<radialGradient id="paint32_radial_865_20287" cx="0" cy="0" r="1" gradientUnits="userSpaceOnUse" gradientTransform="translate(115.662 181.309) rotate(76.1028) scale(106.964 70.6164)">
<stop stop-color="#1B3E9E"/>
<stop offset="0.06" stop-color="#1B3E9E" stop-opacity="0.87"/>
<stop offset="0.21" stop-color="#1B3E9D" stop-opacity="0.61"/>
<stop offset="0.36" stop-color="#1A3D9D" stop-opacity="0.39"/>
<stop offset="0.52" stop-color="#1A3D9C" stop-opacity="0.22"/>
<stop offset="0.67" stop-color="#1A3D9C" stop-opacity="0.1"/>
<stop offset="0.83" stop-color="#1A3D9C" stop-opacity="0.02"/>
<stop offset="1" stop-color="#1A3D9C" stop-opacity="0"/>
</radialGradient>
<radialGradient id="paint33_radial_865_20287" cx="0" cy="0" r="1" gradientUnits="userSpaceOnUse" gradientTransform="translate(119.718 170.881) rotate(76.1028) scale(81.832 54.0247)">
<stop stop-color="#183991"/>
<stop offset="0.03" stop-color="#183992" stop-opacity="0.95"/>
<stop offset="0.18" stop-color="#193A95" stop-opacity="0.66"/>
<stop offset="0.34" stop-color="#193B97" stop-opacity="0.42"/>
<stop offset="0.5" stop-color="#1A3C99" stop-opacity="0.24"/>
<stop offset="0.66" stop-color="#1A3D9B" stop-opacity="0.1"/>
<stop offset="0.82" stop-color="#1A3D9C" stop-opacity="0.03"/>
<stop offset="1" stop-color="#1A3D9C" stop-opacity="0"/>
</radialGradient>
<radialGradient id="paint34_radial_865_20287" cx="0" cy="0" r="1" gradientUnits="userSpaceOnUse" gradientTransform="translate(135.043 181.681) rotate(87.1376) scale(64.6628 56.9226)">
<stop offset="0.04" stop-color="#2453D6" stop-opacity="0.6"/>
<stop offset="0.2" stop-color="#2453D6" stop-opacity="0.49"/>
<stop offset="0.52" stop-color="#2453D6" stop-opacity="0.2"/>
<stop offset="0.73" stop-color="#2453D6" stop-opacity="0"/>
</radialGradient>
<linearGradient id="paint35_linear_865_20287" x1="271.332" y1="28.9999" x2="198.257" y2="209.626" gradientUnits="userSpaceOnUse">
<stop stop-color="#3774FF"/>
<stop offset="0.05" stop-color="#3774FF" stop-opacity="0.91"/>
<stop offset="0.16" stop-color="#3774FF" stop-opacity="0.66"/>
<stop offset="0.32" stop-color="#3774FF" stop-opacity="0.28"/>
<stop offset="0.43" stop-color="#3774FF" stop-opacity="0"/>
</linearGradient>
</defs>
</svg>
